/* XPM */
static char * 1C_xpm[] = {
"25 35 8 1",
" 	c None",
".	c #EAEAEA",
"+	c #F38282",
"@	c #EEB6B6",
"#	c #FA3434",
"$	c #F84E4E",
"%	c #000000",
"&	c #B00000",
".........................",
"...+.....................",
".@#$.....................",
"...$.....................",
"...$.....................",
"...$.....................",
"...$..............%%.....",
"...@.......%%%%%%%%%%%...",
"..%%%%%%%%%%........%%%..",
"...%%%%.............%%%..",
"....%................%%..",
".........................",
".........................",
".........................",
".........................",
".........................",
".............&...........",
"............&&&&.........",
"........&..&..&&.........",
"........&&...&&..........",
".........&.&&&&&&........",
".......&&&&&.&...........",
"...........&&&&&.........",
".......&.&&&&..&&........",
".......&&..&&&&&&........",
"........&.&&&.&&&........",
"........&&..&&&&.........",
"........&&&&&..&&&&......",
"....&&...&.&&&&&..&&&....",
".....&&&&&&&&&..&..&&&...",
"..&&&&&.....&.&&&&..&&&..",
"...&.&&&&&&&&&&.&&..&&&..",
".....&..&&......&&..&&&..",
"..............&&&&.&&&...",
"................&&&&&...."};
