/* XPM */
static char *noname[] = {
/* width height ncolors chars_per_pixel */
"25 35 3 1",
/* colors */
"  c #002065",
". c #B00000",
"X c #EAEAEA",
/* pixels */
"XXXXXXXXXXXXXXXXXXXXXXXXX",
"XXXXXXXXXXXXXXXXXXXXXXXXX",
"XXXXXXXXXXXXXXXXXXXXXXXXX",
"XXXXXXXXXXXXXXXXXXXXXXXXX",
"XXXXXXXXXXXXXXXXXXXXXXXXX",
"XXXXXXXXXXXXXXXXXXXXXXXXX",
"XXXXXXXXXXXXXXXXXXXXXXXXX",
"XXXXXXXXX       XXXXXXXXX",
"XXXXXXX  X X X X  XXXXXXX",
"XXXXXX X  X X X  X XXXXXX",
"XXXXX   XX X X XX   XXXXX",
"XXXX  XX X     X XX  XXXX",
"XXX X XX         XX X XXX",
"XXX  X    .....    X  XXX",
"XX X XX  ..X.X..  XX X XX",
"XX  X   ..X.X.X..   X  XX",
"XX X X  .X.....X.  X X XX",
"XX  X   ..X.X.X..   X  XX",
"XX X X  .X.....X.  X X XX",
"XX  X   ..X.X.X..   X  XX",
"XX X XX  ..X.X..  XX X XX",
"XXX  X    .....    X  XXX",
"XXX X XX         XX X XXX",
"XXXX  XX X     X XX  XXXX",
"XXXXX   XX X X XX   XXXXX",
"XXXXXX X  X X X  X XXXXXX",
"XXXXXXX  X X X X  XXXXXXX",
"XXXXXXXXX       XXXXXXXXX",
"XXXXXXXXXXXXXXXXXXXXXXXXX",
"XXXXXXXXXXXXXXXXXXXXXXXXX",
"XXXXXXXXXXXXXXXXXXXXXXXXX",
"XXXXXXXXXXXXXXXXXXXXXXXXX",
"XXXXXXXXXXXXXXXXXXXXXXXXX",
"XXXXXXXXXXXXXXXXXXXXXXXXX",
"XXXXXXXXXXXXXXXXXXXXXXXXX"
};
