/* XPM */
static char * 1F_xpm[] = {
"25 35 9 1",
" 	c None",
".	c #EAEAEA",
"+	c #F38282",
"@	c #000000",
"#	c #EEB6B6",
"$	c #FA3434",
"%	c #F84E4E",
"&	c #063A30",
"*	c #B00000",
".........................",
"...+............@........",
".#$%....&&......@@..@@@@.",
"...%...&&&&&....@........",
"...%..&&&&.&....@...@@@..",
"...%..&&&&.&...@@.@.@....",
"...%....&&.....@@@@@@@@@@",
"...#.&&&&.......@.@.@....",
".....&..&&&&....@...@@@..",
"......&&&&..&...@...@.@..",
".......&&...&........@...",
"....&..&.................",
"...&.&&&.................",
"...&&.&&&&&&......&......",
".....&&............&.....",
"........****......&......",
".......**..**....&&......",
".....****..*****&.&&.....",
"....*************.&.&....",
"...**..****.*..**.&.&....",
"....*..**...****...&.....",
"....******..****..&......",
".....******.***...&......",
"...&&.**..***.*...&......",
".&&&&.**..**..*..&&......",
"&&&&&.*********..&&......",
".&&&&............&&......",
".&&&&..&&&&&&&&..&&......",
"..&&&&&&&....&&&&&&......",
".&&.&&.........&&&&&.....",
".....&...........&&&&....",
"...................&&&&&.",
"....................&&&&.",
"......................&&.",
"........................."};
