/* XPM */
static char * 1S_xpm[] = {
"25 35 8 1",
" 	c None",
".	c #EAEAEA",
"+	c #B00000",
"@	c #828282",
"#	c #B6B6B6",
"$	c #343434",
"%	c #4E4E4E",
"&	c #063A30",
"......+..................",
"...++++................@.",
"....+.+++............#$%.",
"....+.+...........&....%.",
"....+.+++++.......&....%.",
"...++++++.......&&&.&..%.",
".++++...+........&&&&..%.",
"...+++++++.......&&&...#.",
"..+++..++.++.....&&......",
".++.+++++........&.......",
"....+..++......&&&&&.....",
"....++++.......&&&&&&....",
"...............&&.&&&....",
"...............&&&&......",
"..............&&&...&&&&.",
"...&&&&...........&&...&.",
"..&&..&&...+++++..&&&.&&.",
"..&&&&&&..++...++.&.&&&..",
".....&.++++....++........",
"......++..++..+++++......",
"......+...++++++..+......",
"......+....+..+...++.....",
".......+...++++...++.....",
".......+..++++++.++......",
".......+++++..++++..&&&..",
"...........+...++..&&.&&.",
"...........+...+.&.&..&&.",
"...........++++..&.&..&..",
"..&&&&&&&&&&&.&..&&&&&...",
".&&&&..&&&&&&&&&..&&&&...",
"&&&&....&&.&&&&&&&.&&&...",
"&.&....&&&&..&&&&&&&&&&..",
"&&&....&&&........&.&&&&.",
"&&......&.............&&.",
".......................&."};
