/* XPM */
static char * 2F_xpm[] = {
"25 35 11 1",
" 	c None",
".	c #EAEAEA",
"+	c #ECD0D0",
"@	c #F56868",
"#	c #000000",
"$	c #F84E4E",
"%	c #063A30",
"&	c #EEB6B6",
"*	c #F19C9C",
"=	c #FA3434",
"-	c #F38282",
".........................",
".+@@+.................#..",
".@++$.....%.........###..",
".&..$......%......###..#.",
"..+$*......%......#....#.",
".+=+........%.....#...#..",
".$-**.......%....########",
".&***.......%......##....",
"............%.....##.....",
"............%..%.#.#.....",
"............%%...#.##....",
"............%.....#......",
"...........%%............",
"...%.......%......%%%%%%.",
"..%......%.%..%%%%%.%..%.",
".%%.......%..%.........%%",
".%...%%%..%%%%.........%%",
"%%.....%..%%%.........%%.",
"%%.....%.%%...........%..",
"..%....%.%...............",
"....%%.%%%..........%....",
".....%%%%........%.......",
".......%%........%.%.....",
".......%%%........%.%%...",
".......%%%........%%.....",
".......%.%..%.....%......",
".......%.%.%%.....%......",
".......%.%.%......%......",
".......%%%%%......%......",
"........%%%%%.....%......",
".......%%%%%%....%%......",
"..........%%%....%.......",
"...........%%%..%%.......",
".........................",
"........................."};
