/* XPM */
static char * 2S_xpm[] = {
"25 35 11 1",
" 	c None",
".	c #EAEAEA",
"+	c #B00000",
"@	c #D0D0D0",
"#	c #686868",
"$	c #063A30",
"%	c #4E4E4E",
"&	c #B6B6B6",
"*	c #9C9C9C",
"=	c #343434",
"-	c #828282",
".........................",
".......+............@##@.",
".+++++++...$........#@@%.",
"....++.....$$.......&..%.",
"...+++++....$...$$...@%*.",
"...+...+....$$..$...@=@..",
"...+++++.....$..$...%-**.",
"..++++.+.....$.$$$..&***.",
".++..+++.....$.$$$.......",
".....++......$$..$.......",
"..+++++++....$$$$........",
".............$$$.....$$$.",
"..$$$...$$...$$.....$$$..",
"....$$.$$....$$....$$$$$.",
".....$$$..........$$.....",
".....$$.....++....$......",
".....$$...+++++...$$$....",
"......$..+++..++.$$......",
"......$..+.++..+.$.......",
"......$..+..+..++........",
"......$.+++.++..+........",
".$$.....+.+++++.+........",
"..$$....+..++++.+........",
"....$...+..++.++++.......",
"....$$.$++++..++++.$$....",
".....$$$..++...++.$$.....",
".....$$....+++++..$......",
"..$$..$$..$$$............",
"...$...$$...$$$$$$.......",
"....$...$................",
".....$..$$...$$..........",
"......$.$$$$$$$$$$.......",
"......$$$$......$$.......",
".................$.......",
"........................."};
