/* XPM */
static char * 3C_xpm[] = {
"25 35 10 1",
" 	c None",
".	c #EAEAEA",
"+	c #ECD0D0",
"@	c #F56868",
"#	c #F84E4E",
"$	c #EEB6B6",
"%	c #000000",
"&	c #F38282",
"*	c #F19C9C",
"=	c #B00000",
".........................",
".+@#+....................",
".@++@....................",
".$.+@.........%%.........",
"..$#&......%%%%%%%.......",
".$..#...%%%%....%%.......",
".&&&@.%%%................",
"..$*.........%%%.........",
"..........%%%%%%%........",
"........%%%....%.........",
"........%................",
"...............%%%.......",
".........%%%%%%%%%%%.....",
"....%%%%%%........%%%....",
".....%%............%%....",
".........................",
".............=...........",
"............====.........",
"........=..=..==.........",
"........==...==..........",
".........=.======........",
".......=====.=...........",
"...........=====.........",
".......=.====..==........",
".......==..======........",
"........=.===.===........",
"........==..====.........",
"........=====..====......",
"....==...=.=====..===....",
".....=========..=..===...",
"..=====.....=.====..===..",
"...=.==========.==..===..",
".....=..==......==..===..",
"..............====.===...",
"................=====...."};
