/* XPM */
static char *noname[] = {
/* width height ncolors chars_per_pixel */
"25 35 3 1",
/* colors */
"  c #002065",
". c #B00000",
"X c #EAEAEA",
/* pixels */
"XXXXXXXXXXXXXXXXXXXXXXXXX",
"XXX     XXXXXXXXXXXXXXXXX",
"XX  XXX  XXXXXXXXXXXXXXXX",
"X  X   X  XXXXXXXXXXXXXXX",
"  X X X X  XXXXXXXXXXXXXX",
" X X X X X XXXXXXXXXXXXXX",
" X  X X  X XXXXXXXXXXXXXX",
" X X X X X XXXXXXXXXXXXXX",
"  X X X X  XXXXXXXXXXXXXX",
"X  X   X  XXXXXXXXXXXXXXX",
"XX  XXX  XXXXXXXXXXXXXXXX",
"XXX     XXXXXXXXXXXXXXXXX",
"XXXXXXXXXX.....XXXXXXXXXX",
"XXXXXXXXX..XXX..XXXXXXXXX",
"XXXXXXXX..X...X..XXXXXXXX",
"XXXXXXX..X.X.X.X..XXXXXXX",
"XXXXXXX.X.X.X.X.X.XXXXXXX",
"XXXXXXX.X..X.X..X.XXXXXXX",
"XXXXXXX.X.X.X.X.X.XXXXXXX",
"XXXXXXX..X.X.X.X..XXXXXXX",
"XXXXXXXX..X...X..XXXXXXXX",
"XXXXXXXXX..XXX..XXXXXXXXX",
"XXXXXXXXXX.....XXXXXXXXXX",
"XXXXXXXXXXXXXXXXX     XXX",
"XXXXXXXXXXXXXXXX  XXX  XX",
"XXXXXXXXXXXXXXX  X   X  X",
"XXXXXXXXXXXXXX  X X X X  ",
"XXXXXXXXXXXXXX X X X X X ",
"XXXXXXXXXXXXXX X  X X  X ",
"XXXXXXXXXXXXXX X X X X X ",
"XXXXXXXXXXXXXX  X X X X  ",
"XXXXXXXXXXXXXXX  X   X  X",
"XXXXXXXXXXXXXXXX  XXX  XX",
"XXXXXXXXXXXXXXXXX     XXX",
"XXXXXXXXXXXXXXXXXXXXXXXXX"
};
