/* XPM */
static char * 3F_xpm[] = {
"25 35 11 1",
" 	c None",
".	c #EAEAEA",
"+	c #ECD0D0",
"@	c #F56868",
"#	c #F84E4E",
"$	c #000000",
"%	c #EEB6B6",
"&	c #F38282",
"*	c #063A30",
"=	c #F19C9C",
"-	c #B00000",
".........................",
".+@#+....................",
".@++@.................$$.",
".%.+@....................",
"..%#&..............$$$$$$",
".%..#......*..*..........",
".&&&@......****.....$....",
"..%=........**....$.$..$.",
".......****.*.......$....",
".......****.*.....$$$$$$.",
"........*****.......$....",
".........***.....$$.$....",
"...***....**.............",
"...****...*..............",
"......*..-----...........",
"......*----.-----........",
"......-----..----........",
"......--.--..--.--.**....",
".....---------..--*......",
"***..------------.***....",
"***..-..---------........",
"**...----.----..--.......",
".....----------..-.......",
".....--..---------.......",
".....-...--------...**...",
".....-----..--.....***...",
"......----..-.....**.....",
".*......-----.....*......",
"********.---.....*.......",
"***....***.......*.......",
".......******....******..",
".....***...************..",
".........................",
".........................",
"........................."};
