/* XPM */
static char * 3S_xpm[] = {
"25 35 10 1",
" 	c None",
".	c #EAEAEA",
"+	c #B00000",
"@	c #063A30",
"#	c #D0D0D0",
"$	c #686868",
"%	c #4E4E4E",
"&	c #B6B6B6",
"*	c #828282",
"=	c #9C9C9C",
".........................",
"...+....+.......@...#$%#.",
"...++...+.......@@..$##$.",
"...+++..++++.....@@.&.#$.",
".+++..+++......@@@@@.&%*.",
"...++...+......@..@.&..%.",
"...+++.+++.....@@.@.***$.",
".+++..+..++.....@@@..&=..",
"...+++....++....@@@......",
"...++......++....@@......",
"...+.............@@......",
".................@@......",
".@@@@@.....@@@@@@@@@.....",
"@@@..@......@..@@..@.....",
".@@@@@......@@.@@..@.....",
".........++..@@@@@@@.....",
"......+++.++...@...@.....",
".....++....++....@@@@....",
".....+......+...@@..@....",
"....+++++...++..@@@@@....",
"...++.+++++..++...@@.....",
"...++.++..+...+..........",
"...++++++..+..+..........",
"...+.+..++.+..+..........",
"...+.++.++.+..+.....@@@..",
"...++++++++++++....@@.@..",
"....++++.++++...@.@..@@..",
".....+++++++...@@@@.@@...",
"@@@@@@@@@@......@@@@@....",
"@..@@.@@@@@@@@@@@@@@.....",
"..@@..@..@@.....@@@@@....",
"@@....@.@@........@@@@@..",
"......@@@...........@@@@@",
".......@................@",
"........................."};
