/* XPM */
static char * 4C_xpm[] = {
"25 35 14 1",
" 	c None",
".	c #EAEAEA",
"+	c #F19C9C",
"@	c #EEB6B6",
"#	c #ECD0D0",
"$	c #FC1A1A",
"%	c #F84E4E",
"&	c #F38282",
"*	c #000000",
"=	c #FA3434",
"-	c #C60000",
";	c #550000",
">	c #1C0000",
",	c #B00000",
".........................",
"...+@....................",
"..#$+....................",
"..%&+....................",
".+&++......*********.....",
".%%=-..*****..**..***....",
"...;;*****....***..***...",
"...>>*..***...***..***...",
"...***...***..**..****...",
"....**....**.**...***....",
".....**..***********.....",
"......****.......**......",
".......*.................",
".........................",
".........................",
".........................",
".............,...........",
"............,,,,.........",
"........,..,..,,.........",
"........,,...,,..........",
".........,.,,,,,,........",
".......,,,,,.,...........",
"...........,,,,,.........",
".......,.,,,,..,,........",
".......,,..,,,,,,........",
"........,.,,,.,,,........",
"........,,..,,,,.........",
"........,,,,,..,,,,......",
"....,,...,.,,,,,..,,,....",
".....,,,,,,,,,..,..,,,...",
"..,,,,,.....,.,,,,..,,,..",
"...,.,,,,,,,,,,.,,..,,,..",
".....,..,,......,,..,,,..",
"..............,,,,.,,,...",
"................,,,,,...."};
