/* XPM */
static char * 4F_xpm[] = {
"25 35 11 1",
" 	c None",
".	c #EAEAEA",
"+	c #F19C9C",
"@	c #EEB6B6",
"#	c #ECD0D0",
"$	c #FC1A1A",
"%	c #F84E4E",
"&	c #F38282",
"*	c #063A30",
"=	c #000000",
"-	c #FA3434",
".........................",
"...+@....................",
"..#$+....................",
"..%&+.......*....=.==....",
".+&++......*...=======...",
".%%--.....*......==.=....",
"...++.....*......==.=....",
"...##.....*......=...=...",
"..........*.....==...=...",
"..........**....=....=...",
"..........**....=...==...",
"..........**.....*.......",
"....**....***....*.......",
"...***.*...**...**.......",
"...*....*...*.........*..",
"..***....*..**......****.",
"..........*..*..******...",
"..........*.*****.*..**..",
"......******.**.*..*..**.",
"....***.***...*.**...*.*.",
"...**.*****...**.....*.*.",
"..***.***.*****..***..**.",
".*..*.**..**..****.**..*.",
".*....*...*...**.....***.",
".*.*..**..******......**.",
".***..**...**.**......*..",
"..***.**...*...*...*.....",
"..*....*...*...**.**.....",
".....***...********..**..",
".......**..**...**..*....",
"........*..*....**.*...*.",
"........**.********...*..",
".....*...***.........*...",
"..........*..............",
"........................."};
