/* XPM */
static char * 4S_xpm[] = {
"25 35 11 1",
" 	c None",
".	c #EAEAEA",
"+	c #B00000",
"@	c #9C9C9C",
"#	c #B6B6B6",
"$	c #063A30",
"%	c #D0D0D0",
"&	c #1A1A1A",
"*	c #4E4E4E",
"=	c #828282",
"-	c #343434",
".........................",
"......+++.............@#.",
"...++++++...$........%&@.",
"....++.+....$........*=@.",
".....+++....$$......@=@@.",
"....++++....$$......**--.",
"..++...++...$$........@@.",
".++.....++.$.$........%%.",
".+...+++..+$$$...........",
"............$$.....$$$$..",
"....++++....$.....$$..$$.",
"...........$$$$$.$$....$.",
"...........$$$...$$$$$$$.",
"......$$$.$$.....$$......",
".....$$.$$$.....$$$$.....",
".....$$$$$$.....$$.$$....",
".....$..$$......$..$.....",
"........$.++++++$$$$.....",
"..........+....+.........",
".......++++...++++.......",
"......++.++++.+++++......",
"......++..+++++...+......",
".......+..+..++...+......",
".......++++.+++...+......",
".........+++.++..++......",
".....$$..+...+++++.......",
"..$$$$$$.+...+.....$$....",
"..$....$$+++++..$$$$$$...",
"..$$$...$$......$....$$..",
"....$$$$$$.$$$.$$.....$$.",
"........$$$$.$$$$$$$...$.",
".........$$..$$$...$$$$$.",
".........$$...$..........",
".........................",
"........................."};
