/* XPM */
static char * 5C_xpm[] = {
"25 35 10 1",
" 	c None",
".	c #EAEAEA",
"+	c #EEB6B6",
"@	c #F84E4E",
"#	c #F38282",
"$	c #F19C9C",
"%	c #000000",
"&	c #F56868",
"*	c #ECD0D0",
"=	c #B00000",
".........................",
".+@@#....................",
".$$............%.........",
".$@&*.........%%%%.......",
".*+*@.%%....%%%%%%%......",
".+..@..%%.%%%%%..........",
".&##&.%%%....%%..........",
"..++..%%%...%%.%%........",
"......%%....%%%%%%.......",
".....%%%.%%%%%%%%%%......",
".....%%%..%%%..%%........",
"....%%.%...%..%%.%%%.....",
"....%..%..%%%%%%%%%%%%...",
"...%..%%%%%%.......%%%%..",
"..%...%%............%%%..",
".......%.............%...",
".............=...........",
"............====.........",
"........=..=..==.........",
"........==...==..........",
".........=.======........",
".......=====.=...........",
"...........=====.........",
".......=.====..==........",
".......==..======........",
"........=.===.===........",
"........==..====.........",
"........=====..====......",
"....==...=.=====..===....",
".....=========..=..===...",
"..=====.....=.====..===..",
"...=.==========.==..===..",
".....=..==......==..===..",
"..............====.===...",
"................=====...."};
