/* XPM */
static char *noname[] = {
/* width height ncolors chars_per_pixel */
"25 35 4 1",
/* colors */
"  c #002065",
". c #B00000",
"X c #EAEAEA",
"o c #FFFFFF",
/* pixels */
"XXXo     oXXXXXo     oXXX",
"XXo  ooo  oXXXo  ooo  oXX",
"Xo  o   o  oXo  o   o  oX",
"X  o o o o  X  o o o o  X",
"X X o o o X X X o o o X X",
"X X  o o  X X X  o o  X X",
"X o o o o o X o o o o o X",
"X  o o o o  X  o o o o  X",
"XX  o   o  XXX  o   o  XX",
"XXX  ooo  XXXXX  ooo  XXX",
"XXXX     XXXXXXX     XXXX",
"XXXXXXXXXXXXXXXXXXXXXXXXX",
"XXXXXXXXXXXXXXXXXXXXXXXXX",
"XXXXXXXXXXXXXXXXXXXXXXXXX",
"XXXX.....XXXXXXX.....XXXX",
"XXX..ooo..XXXXX..ooo..XXX",
"XX..o...o..XXX..o...o..XX",
"X..o.o.o.o..X..o.o.o.o..X",
"X.o.o.o.o.o.X.o.o.o.o.o.X",
"X.X..o.o..X.X.X..o.o..X.X",
"X.X.o.o.o.X.X.X.o.o.o.X.X",
"X..o.o.o.o..X..o.o.o.o..X",
"Xo..o...o..oXo..o...o..oX",
"XXo..ooo..oXXXo..ooo..oXX",
"XXXo.....oXXXXXo.....oXXX",
"XXX..ooo..XXXXX..ooo..XXX",
"XX..o...o..XXX..o...o..XX",
"X..o.o.o.o..X..o.o.o.o..X",
"X.o.o.o.o.o.X.o.o.o.o.o.X",
"X.X..o.o..X.X.X..o.o..X.X",
"X.X.o.o.o.X.X.X.o.o.o.X.X",
"X..o.o.o.o..X..o.o.o.o..X",
"Xo..o...o..oXo..o...o..oX",
"XXo..ooo..oXXXo..ooo..oXX",
"XXXo.....oXXXXXo.....oXXX"
};
