/* XPM */
static char *noname[] = {
/* width height ncolors chars_per_pixel */
"25 35 3 1",
/* colors */
"  c #B00000",
". c #EAEAEA",
"X c #063A30",
/* pixels */
"..........     ..........",
".........   .   .........",
"..........  .  ..........",
"........... . ...........",
"..........     ..........",
".........   .   .........",
"..........     ..........",
"........... . ...........",
"..........  .  ..........",
".........   .   .........",
"..........     ..........",
".........................",
".XXXXX....XXXXX....XXXXX.",
"XXX.XXX..XXX.XXX..XXX.XXX",
".XX.XX....XX.XX....XX.XX.",
"..X.X......X.X......X.X..",
".XXXXX....XXXXX....XXXXX.",
"XXX.XXX..XXX.XXX..XXX.XXX",
".XXXXX....XXXXX....XXXXX.",
"..X.X......X.X......X.X..",
".XX.XX....XX.XX....XX.XX.",
"XXX.XXX..XXX.XXX..XXX.XXX",
".XXXXX....XXXXX....XXXXX.",
".........................",
".XXXXX....XXXXX....XXXXX.",
"XXX.XXX..XXX.XXX..XXX.XXX",
".XX.XX....XX.XX....XX.XX.",
"..X.X......X.X......X.X..",
".XXXXX....XXXXX....XXXXX.",
"XXX.XXX..XXX.XXX..XXX.XXX",
".XXXXX....XXXXX....XXXXX.",
"..X.X......X.X......X.X..",
".XX.XX....XX.XX....XX.XX.",
"XXX.XXX..XXX.XXX..XXX.XXX",
".XXXXX....XXXXX....XXXXX."
};
