/* XPM */
static char * 7C_xpm[] = {
"25 35 10 1",
" 	c None",
".	c #EAEAEA",
"+	c #F38282",
"@	c #F84E4E",
"#	c #ECD0D0",
"$	c #F56868",
"%	c #000000",
"&	c #EEB6B6",
"*	c #FA3434",
"=	c #B00000",
".........................",
".+@@@....................",
"...#@....................",
"...$#....................",
"..#$....%........%%%%%...",
"..$&....%%%.....%%%%%....",
"..*......%%....%%........",
"..&......%%...%..........",
"..........%..%...........",
"..........%.%............",
"..........%%.............",
".........%%%%..%%........",
"........%%.%%%%%%%.......",
"......%%%...%%%%%%%......",
"...%%%%......%%%%%.......",
"....%%...................",
".............=...........",
"............====.........",
"........=..=..==.........",
"........==...==..........",
".........=.======........",
".......=====.=...........",
"...........=====.........",
".......=.====..==........",
".......==..======........",
"........=.===.===........",
"........==..====.........",
"........=====..====......",
"....==...=.=====..===....",
".....=========..=..===...",
"..=====.....=.====..===..",
"...=.==========.==..===..",
".....=..==......==..===..",
"..............====.===...",
"................=====...."};
