/* XPM */
static char * 7D_xpm[] = {
"25 35 3 1",
".	c #EAEAEA",
"+	c #002065",
"@	c #B00000",
"...+++...................",
".++...++.................",
".+.+++.+.................",
"+.++.++.+..+++...........",
"+.+.+.+.+++...++.........",
"+.++.++.++.+++.+.........",
".+.+++.++.++.++.+..+++...",
".++...+++.+.+.+.+++...++.",
"...+++..+.++.++.++.+++.+.",
".........+.+++.++.++.++.+",
".........++...+++.+.+.+.+",
"...........+++..+.++.++.+",
".................+.+++.+.",
".................++...++.",
"...................+++...",
".........................",
".....@@@.........@@@.....",
"...@@...@@.....@@...@@...",
"...@.@@@.@.....@.@@@.@...",
"..@.@@.@@.@...@.@@.@@.@..",
"..@.@.@.@.@...@.@.@.@.@..",
"..@.@@.@@.@...@.@@.@@.@..",
"...@.@@@.@.....@.@@@.@...",
"...@@...@@.....@@...@@...",
".....@@@.........@@@.....",
".....@@@.........@@@.....",
"...@@...@@.....@@...@@...",
"...@.@@@.@.....@.@@@.@...",
"..@.@@.@@.@...@.@@.@@.@..",
"..@.@.@.@.@...@.@.@.@.@..",
"..@.@@.@@.@...@.@@.@@.@..",
"...@.@@@.@.....@.@@@.@...",
"...@@...@@.....@@...@@...",
".....@@@.........@@@.....",
"........................."};
