/* XPM */
static char * 8C_xpm[] = {
"25 35 11 1",
" 	c None",
".	c #EAEAEA",
"+	c #F38282",
"@	c #F56868",
"#	c #ECD0D0",
"$	c #EEB6B6",
"%	c #000000",
"&	c #F84E4E",
"*	c #F19C9C",
"=	c #FA3434",
"-	c #B00000",
".........................",
"..+@#....................",
".$+#@....................",
".$+#@.......%............",
".#&&*.....%%%%...........",
".&#.=.......%............",
".+@+&........%...........",
"..$*...%.....%%..........",
"........%%....%%.........",
".......%%%%....%%%.......",
".......%%.%.....%%%%%....",
"......%%.........%%%%%%%.",
"....%%............%%%%...",
".%%%.....................",
".........................",
".........................",
".............-...........",
"............----.........",
"........-..-..--.........",
"........--...--..........",
".........-.------........",
".......-----.-...........",
"...........-----.........",
".......-.----..--........",
".......--..------........",
"........-.---.---........",
"........--..----.........",
"........-----..----......",
"....--...-.-----..---....",
".....---------..-..---...",
"..-----.....-.----..---..",
"...-.----------.--..---..",
".....-..--......--..---..",
"..............----.---...",
"................-----...."};
