/* XPM */
static char * 9C_xpm[] = {
"25 35 12 1",
" 	c None",
".	c #EAEAEA",
"+	c #ECD0D0",
"@	c #F56868",
"#	c #F84E4E",
"$	c #EEB6B6",
"%	c #F19C9C",
"&	c #000000",
"*	c #F38282",
"=	c #FC1A1A",
"-	c #FA3434",
";	c #B00000",
".........................",
".+@#$....................",
".@%+#....................",
".#..#..&&&&...&&.........",
".*#*=...&&&&...&&&.......",
"..$$-....&&...&&&&&......",
".@**@....&&&&&&&.&&......",
"..$$.&&&&&&&&&&..........",
".........&&..&.....&.....",
"........&&&..&.....&.....",
"........&&...&.....&&....",
".......&&....&&...&&&....",
"......&&......&&&&&&&&...",
".....&&........&&&&&&....",
"...&&....................",
".........................",
".............;...........",
"............;;;;.........",
"........;..;..;;.........",
"........;;...;;..........",
".........;.;;;;;;........",
".......;;;;;.;...........",
"...........;;;;;.........",
".......;.;;;;..;;........",
".......;;..;;;;;;........",
"........;.;;;.;;;........",
"........;;..;;;;.........",
"........;;;;;..;;;;......",
"....;;...;.;;;;;..;;;....",
".....;;;;;;;;;..;..;;;...",
"..;;;;;.....;.;;;;..;;;..",
"...;.;;;;;;;;;;.;;..;;;..",
".....;..;;......;;..;;;..",
"..............;;;;.;;;...",
"................;;;;;...."};
