/* XPM */
static char * EW_xpm[] = {
"25 35 10 1",
" 	c None",
".	c #EAEAEA",
"+	c #F19C9C",
"@	c #FA3434",
"#	c #F84E4E",
"$	c #F38282",
"%	c #F56868",
"&	c #ECD0D0",
"*	c #000000",
"=	c #EEB6B6",
".........................",
".+@##$...................",
".++......................",
".+%++&.....***...........",
".+%++&......***..........",
".++.........***..........",
".+%++=......**...........",
".&+++=......**.**........",
"............******.......",
".......***********.......",
".........*****...........",
"............**.***.......",
"...........********......",
"......**.***********.....",
"......****..**....***....",
"......***..******.***....",
"......***************....",
".......***..**...***.....",
"........***********......",
".........**.**..**.......",
"..........******.........",
".........*****.**........",
"........***.**..**.......",
".......***..**..***......",
"......***...**...***.....",
".....*****..**...*****...",
"...**....*****....*****..",
"..........****...........",
"...........***...........",
"............**...........",
"............*............",
".........................",
".........................",
".........................",
"........................."};
