/* XPM */
static char * NW_xpm[] = {
"25 35 10 1",
" 	c None",
".	c #EAEAEA",
"+	c #F19C9C",
"@	c #FC1A1A",
"#	c #F56868",
"$	c #FA3434",
"%	c #ECD0D0",
"&	c #EEB6B6",
"*	c #F38282",
"=	c #000000",
".........................",
".+@..++..................",
".+##.++..................",
".++$%++..................",
".++&#++..................",
".++.$*+..................",
".++.%@+..................",
".%%..&%..................",
".........................",
".............===.........",
".............=====.......",
"..............====.......",
".........=....====.......",
".......====...===........",
".......=====..==..===....",
"........====..==..====...",
".........==...==.======..",
"...=====.==...=======....",
"...=====.==...====.......",
"....===..==...==.........",
".........==...==.........",
".........==.=.==.........",
"...=.....===..===........",
"...==...===...=========..",
"...========....========..",
"..======.=.......=====...",
"...===...=...............",
".........................",
".........................",
".........................",
".........................",
".........................",
".........................",
".........................",
"........................."};
