/* XPM */
static char * SW_xpm[] = {
"25 35 10 1",
" 	c None",
".	c #EAEAEA",
"+	c #F56868",
"@	c #F84E4E",
"#	c #F19C9C",
"$	c #F38282",
"%	c #ECD0D0",
"&	c #EEB6B6",
"*	c #000000",
"=	c #FA3434",
".........................",
"..+@@#...................",
".#$..$...................",
".%@+&....**..............",
"...%+@....****...........",
".$...@.....*****.........",
".#=#$@......***..........",
"..%#&.......***..........",
"............**...........",
"............**.*.........",
"............*****........",
"...........*******.......",
"........***.****.........",
"............**.**........",
"............*..***.......",
".......*....******.......",
".......***.***********...",
"........******.**..****..",
".......*****..***...***..",
"..*...*****.****....***..",
"...*.*...*****..**..**...",
"...**...***.*******.**...",
"....**....*****.....**...",
"....***.***.**......**...",
".....***....*......***...",
"......**.....*********...",
".......*........******...",
"...................**....",
".........................",
".........................",
".........................",
".........................",
".........................",
".........................",
"........................."};
