/* XPM */
static char * tongW_xpm[] = {
"35 35 11 1",
" 	c None",
".	c #000000",
"+	c #FFFFFF",
"@	c #FF5555",
"#	c #FF8E8E",
"$	c #FFC7C7",
"%	c #FFE3E3",
"&	c #FF3939",
"*	c #FFAAAA",
"=	c #FF7272",
"-	c #380000",
"             .........             ",
"          ...+++++++++...          ",
"        ..+++++++++++++++..        ",
"       .+++++++++++++++++++.       ",
"      .+@++@++@+++++++++++++.      ",
"     .++#$%&#+@++++++++++++++.     ",
"    .+++****@+@+++++++++++++++.    ",
"   .+++++@=%@**+++++++..+++++++.   ",
"  .++++++@@+@=%++++++....+++++++.  ",
"  .++++++#=+$&+++..........+++++.  ",
" .+++++++%%+.-....+++++.....+++++. ",
" .+++++......+++++...+......+++++. ",
" .++++++..+++++++++....++++++++++. ",
".++++++++++++++++++...++++++++++++.",
".++++++++++..+++++...+++++++++++++.",
".+++++++++++..++++...+++++++++++++.",
".+++++++++++..+++.+..+++++++++++++.",
".++++++++++++..++......+++++++++++.",
".+++++++++++.........+...+++++++++.",
".++++++++++....+.++..++...++++++++.",
".+++++++....+..+.++..+++...+++++++.",
".+++++++...+++...++.++++...+++++++.",
" .++++++...+++...+..+++....++++++. ",
" .+++++++...+++...........+++++++. ",
" .++++++++...............++++++++. ",
"  .++++++++.....++++....++++++++.  ",
"  .+++++++++..++++++...+++++++++.  ",
"   .+++++++++++++++++++++++++++.   ",
"    .+++++++++++++++++++++++++.    ",
"     .+++++++++++++++++++++++.     ",
"      .+++++++++++++++++++++.      ",
"       .+++++++++++++++++++.       ",
"        ..+++++++++++++++..        ",
"          ...+++++++++...          ",
"             .........             "};
