/* XPM */
static char * WW_xpm[] = {
"25 35 10 1",
" 	c None",
".	c #EAEAEA",
"+	c #F84E4E",
"@	c #F38282",
"#	c #EEB6B6",
"$	c #ECD0D0",
"%	c #FA3434",
"&	c #F19C9C",
"*	c #F56868",
"=	c #000000",
".........................",
".+..+..+.................",
".@#$%@.+.................",
".&&&&+.+.................",
"..+*$+&&.................",
"..++.+*$.................",
"..@*.#%..................",
"..$$..#..........==......",
"................====.....",
"............==========...",
".......======.....=====..",
"..======.....===.======..",
"...==.........====.......",
"..............===........",
"......==.....===.........",
".......==....===.........",
".......==...=.==.........",
"........==..======.......",
".......=========.===.....",
"......====.=..==..===....",
"...====.==.=..==...===...",
"...===...===..=....===...",
"...===...===.==...====...",
"....===...===========....",
".....===============.....",
"......=====....====......",
".......==......===.......",
".........................",
".........................",
".........................",
".........................",
".........................",
".........................",
".........................",
"........................."};
