/* XPM */
static char *noname[] = {
/* width height ncolors chars_per_pixel */
"25 35 3 1",
/* colors */
"  c #B00000",
". c #EAEAEA",
"X c #063A30",
/* pixels */
".........................",
"...X........... . . . ...",
"...X..... .X.... . . . ..",
"..XX.   .  X... . . . . .",
".XX.....  ..X. . . .   . ",
".XX.....    X..     . . .",
".XX...  . ..X. . . .   . ",
"X.X.. . . ...X.       . .",
"X.X.. ... X..X X X   .   ",
"X.X.. .. ..X.X.XX .     .",
"X.X.. .X...X.X X  X .  . ",
"X.X.. ..X..X.X.X X X  . .",
"X..X. ..X..XXXXXXXX  . . ",
"X.XX. ..X.X . . .XX  .. .",
"X .X. ..XXX X X XXX.. ...",
"X. XXXX.X. . . . XX......",
"X .XX.X.XX X X X XXXX....",
"X. XX.X.X . . . .XXXXX...",
"X .XX...XXXXXXXXX.XX..XX.",
"X.XXX...XXX. . XX...X...X",
"XXX.XX..XX. . .X.XX..X...",
"XX...XXXXX . . .X.XXX....",
"X.........X . .X.X.X.XX..",
".......... XXXXXXXXXXXXXX",
".........  ..  .  .......",
"........  . .. .. .......",
"....... ... .. ... ......",
"......  ....... .........",
"...... . ...... .........",
"...... ...XXXXX X........",
"...XXXX XX.... ..X.X.X...",
".X.X.......... ..X..X....",
"..XX....... . ...XXX.X...",
"...XX.......  .....X...X.",
"XXXX.....   .. .....XXXXX"
};
