/* XPM */
static char *1F[] = {
/* width height ncolors chars_per_pixel */
"25 35 4 1",
/* colors */
"  c #000000",
". c #B00000",
"X c #EAEAEA",
"o c #063A30",
/* pixels */
"XXXXXXXXXXXXXXXXXXXXXXXXX",
"...XXXXXXXXXXXXX XXXXXXXX",
"XX.XXXXXooXXXXXX  XX    X",
"XX.XXXXoooooXXXX XXXXXXXX",
"XX.XXXooooXoXXXX XXX   XX",
"X...XXooooXoXXX  X X XXXX",
"XXXXXXXXooXXXXX          ",
"XXXXXooooXXXXXXX X X XXXX",
"XXXXXoXXooooXXXX XXX   XX",
"XXXXXXooooXXoXXX XXX X XX",
"XXXXXXXooXXXoXXXXXXXX XXX",
"XXXXoXXoXXXXXXXXXXXXXXXXX",
"XXXoXoooXXXXXXXXXXXXXXXXX",
"XXXooXooooooXXXXXXoXXXXXX",
"XXXXXooXXXXXXXXXXXXoXXXXX",
"XXXXXXXX....XXXXXXoXXXXXX",
"XXXXXXX..XX..XXXXooXXXXXX",
"XXXXX....XX.....oXooXXXXX",
"XXXX.............XoXoXXXX",
"XXX..XX....X.XX..XoXoXXXX",
"XXXX.XX..XXX....XXXoXXXXX",
"XXXX......XX....XXoXXXXXX",
"XXXXX......X...XXXoXXXXXX",
"XXXooX..XX...X.XXXoXXXXXX",
"XooooX..XX..XX.XXooXXXXXX",
"oooooX.........XXooXXXXXX",
"XooooXXXXXXXXXXXXooXXXXXX",
"XooooXXooooooooXXooXXXXXX",
"XXoooooooXXXXooooooXXXXXX",
"XooXooXXXXXXXXXoooooXXXXX",
"XXXXXoXXXXXXXXXXXooooXXXX",
"XXXXXXXXXXXXXXXXXXXoooooX",
"XXXXXXXXXXXXXXXXXXXXooooX",
"XXXXXXXXXXXXXXXXXXXXXXooX",
"XXXXXXXXXXXXXXXXXXXXXXXXX"
};
