/* XPM */
static char *1S[] = {
/* width height ncolors chars_per_pixel */
"25 35 4 1",
/* colors */
"  c #000000",
". c #B00000",
"X c #EAEAEA",
"o c #063A30",
/* pixels */
"XXXXXX.XXXXXXXXXXXXXXXXXX",
"XXX....XXXXXXXXXXXXXXXXXX",
"XXXX.X...XXXXXXXXXXXXXXXX",
"XXXX.X.XXXXXXXXXXXoXXXX X",
"XXXX.X.....XXXXXXXoXXX  X",
"XXX......XXXXXXXoooXoX  X",
"X....XXX.XXXXXXXXooooXX X",
"XXX.......XXXXXXXoooXXX X",
"XX...XX..X..XXXXXooXXXX  ",
"X..X.....XXXXXXXXoXXXXXXX",
"XXXX.XX..XXXXXXoooooXXXXX",
"XXXX....XXXXXXXooooooXXXX",
"XXXXXXXXXXXXXXXooXoooXXXX",
"XXXXXXXXXXXXXXXooooXXXXXX",
"XXXXXXXXXXXXXXoooXXXooooX",
"XXXooooXXXXXXXXXXXooXXXoX",
"XXooXXooXXX.....XXoooXooX",
"XXooooooXX..XXX..XoXoooXX",
"XXXXXoX....XXXX..XXXXXXXX",
"XXXXXX..XX..XX.....XXXXXX",
"XXXXXX.XXX......XX.XXXXXX",
"XXXXXX.XXXX.XX.XXX..XXXXX",
"XXXXXXX.XXX....XXX..XXXXX",
"XXXXXXX.XX......X..XXXXXX",
"XXXXXXX.....XX....XXoooXX",
"XXXXXXXXXXX.XXX..XXooXooX",
"XXXXXXXXXXX.XXX.XoXoXXooX",
"XXXXXXXXXXX....XXoXoXXoXX",
"XXoooooooooooXoXXoooooXXX",
"XooooXXoooooooooXXooooXXX",
"ooooXXXXooXoooooooXoooXXX",
"oXoXXXXooooXXooooooooooXX",
"oooXXXXoooXXXXXXXXoXooooX",
"ooXXXXXXoXXXXXXXXXXXXXooX",
"XXXXXXXXXXXXXXXXXXXXXXXoX"
};
