/* XPM */
static char *2F[] = {
/* width height ncolors chars_per_pixel */
"25 35 4 1",
/* colors */
"  c #000000",
". c #B00000",
"X c #EAEAEA",
"o c #063A30",
/* pixels */
"XXXXXXXXXXXXXXXXXXXXXXXXX",
"XXXXXXXXXXXXXXXXXXXXXX XX",
"XX....XXXXoXXXXXXXXX   XX",
"XX.XX.XXXXXoXXXXXX   XX X",
"XXXX..XXXXXoXXXXXX XXXX X",
"XXX..XXXXXXXoXXXXX XXX XX",
"XX..XXXXXXXXoXXXX        ",
"XX....XXXXXXoXXXXXX  XXXX",
"XXXXXXXXXXXXoXXXXX  XXXXX",
"XXXXXXXXXXXXoXXoX X XXXXX",
"XXXXXXXXXXXXooXXX X  XXXX",
"XXXXXXXXXXXXoXXXXX XXXXXX",
"XXXXXXXXXXXooXXXXXXXXXXXX",
"XXXoXXXXXXXoXXXXXXooooooX",
"XXoXXXXXXoXoXXoooooXoXXoX",
"XooXXXXXXXoXXoXXXXXXXXXoo",
"XoXXXoooXXooooXXXXXXXXXoo",
"ooXXXXXoXXoooXXXXXXXXXooX",
"ooXXXXXoXooXXXXXXXXXXXoXX",
"XXoXXXXoXoXXXXXXXXXXXXXXX",
"XXXXooXoooXXXXXXXXXXoXXXX",
"XXXXXooooXXXXXXXXoXXXXXXX",
"XXXXXXXooXXXXXXXXoXoXXXXX",
"XXXXXXXoooXXXXXXXXoXooXXX",
"XXXXXXXoooXXXXXXXXooXXXXX",
"XXXXXXXoXoXXoXXXXXoXXXXXX",
"XXXXXXXoXoXooXXXXXoXXXXXX",
"XXXXXXXoXoXoXXXXXXoXXXXXX",
"XXXXXXXoooooXXXXXXoXXXXXX",
"XXXXXXXXoooooXXXXXoXXXXXX",
"XXXXXXXooooooXXXXooXXXXXX",
"XXXXXXXXXXoooXXXXoXXXXXXX",
"XXXXXXXXXXXoooXXooXXXXXXX",
"XXXXXXXXXXXXXXXXXXXXXXXXX",
"XXXXXXXXXXXXXXXXXXXXXXXXX"
};
