/* XPM */
static char *2S[] = {
/* width height ncolors chars_per_pixel */
"25 35 4 1",
/* colors */
"  c #000000",
". c #B00000",
"X c #EAEAEA",
"o c #063A30",
/* pixels */
"XXXXXXXXXXXXXXXXXXXXXXXXX",
"XXXXXXX.XXXXXXXXXXXXX  XX",
"X.......XXXoXXXXXXX  X XX",
"XXXX..XXXXXooXXXXXX XX XX",
"XXX.....XXXXoXXXooXXX XXX",
"XXX.XXX.XXXXooXXoXXX XXXX",
"XXX.....XXXXXoXXoXX    XX",
"XX....X.XXXXXoXoooXXXXXXX",
"X..XX...XXXXXoXoooXXXXXXX",
"XXXXX..XXXXXXooXXoXXXXXXX",
"XX.......XXXXooooXXXXXXXX",
"XXXXXXXXXXXXXoooXXXXXoooX",
"XXoooXXXooXXXooXXXXXoooXX",
"XXXXooXooXXXXooXXXXoooooX",
"XXXXXoooXXXXXXXXXXooXXXXX",
"XXXXXooXXXXX..XXXXoXXXXXX",
"XXXXXooXXX.....XXXoooXXXX",
"XXXXXXoXX...XX..XooXXXXXX",
"XXXXXXoXX.X..XX.XoXXXXXXX",
"XXXXXXoXX.XX.XX..XXXXXXXX",
"XXXXXXoX...X..XX.XXXXXXXX",
"XooXXXXX.X.....X.XXXXXXXX",
"XXooXXXX.XX....X.XXXXXXXX",
"XXXXoXXX.XX..X....XXXXXXX",
"XXXXooXo....XX....XooXXXX",
"XXXXXoooXX..XXX..XooXXXXX",
"XXXXXooXXXX.....XXoXXXXXX",
"XXooXXooXXoooXXXXXXXXXXXX",
"XXXoXXXooXXXooooooXXXXXXX",
"XXXXoXXXoXXXXXXXXXXXXXXXX",
"XXXXXoXXooXXXooXXXXXXXXXX",
"XXXXXXoXooooooooooXXXXXXX",
"XXXXXXooooXXXXXXooXXXXXXX",
"XXXXXXXXXXXXXXXXXoXXXXXXX",
"XXXXXXXXXXXXXXXXXXXXXXXXX"
};
