/* XPM */
static char *3F[] = {
/* width height ncolors chars_per_pixel */
"25 35 4 1",
/* colors */
"  c #000000",
". c #B00000",
"X c #EAEAEA",
"o c #063A30",
/* pixels */
"XXXXXXXXXXXXXXXXXXXXXXXXX",
"XXXXXXXXXXXXXXXXXXXXXXXXX",
"X....XXXXXXXXXXXXXXXXX  X",
"X.XX..XXXXXXXXXXXXXXXXXXX",
"XXX...XXXXXXXXXXXXX      ",
"XXX...XXXXXoXXoXXXXXXXXXX",
"XXXXX.XXXXXooooXXXXX XXXX",
"XX.X..XXXXXXooXXXX X XX X",
"XXX..XXooooXoXXXXXXX XXXX",
"XXXXXXXooooXoXXXXX      X",
"XXXXXXXXoooooXXXXXXX XXXX",
"XXXXXXXXXoooXXXXX  X XXXX",
"XXXoooXXXXooXXXXXXXXXXXXX",
"XXXooooXXXoXXXXXXXXXXXXXX",
"XXXXXXoXX.....XXXXXXXXXXX",
"XXXXXXo....X.....XXXXXXXX",
"XXXXXX.....XX....XXXXXXXX",
"XXXXXX..X..XX..X..XooXXXX",
"XXXXX.........XX..oXXXXXX",
"oooXX............XoooXXXX",
"oooXX.XX.........XXXXXXXX",
"ooXXX....X....XX..XXXXXXX",
"XXXXX..........XX.XXXXXXX",
"XXXXX..XX.........XXXXXXX",
"XXXXX.XXX........XXXooXXX",
"XXXXX.....XX..XXXXXoooXXX",
"XXXXXX....XX.XXXXXooXXXXX",
"XoXXXXXX.....XXXXXoXXXXXX",
"ooooooooX...XXXXXoXXXXXXX",
"oooXXXXoooXXXXXXXoXXXXXXX",
"XXXXXXXooooooXXXXooooooXX",
"XXXXXoooXXXooooooooooooXX",
"XXXXXXXXXXXXXXXXXXXXXXXXX",
"XXXXXXXXXXXXXXXXXXXXXXXXX",
"XXXXXXXXXXXXXXXXXXXXXXXXX"
};
