/* XPM */
static char *4F[] = {
/* width height ncolors chars_per_pixel */
"25 35 4 1",
/* colors */
"  c #000000",
". c #B00000",
"X c #EAEAEA",
"o c #063A30",
/* pixels */
"XXXXXXXXXXXXXXXXXXXXXXXXX",
"XXX.XXXXXXXXXXXXXXXXXXXXX",
"XX..XXXXXXXXXXXXXXXXXXXXX",
"X...XXXXXXXXoXXXX X  XXXX",
"X.X.XXXXXXXoXXX       XXX",
"X....XXXXXoXXXXXX  X XXXX",
"XXX.XXXXXXoXXXXXX  X XXXX",
"XXXXXXXXXXoXXXXXX XXX XXX",
"XXXXXXXXXXoXXXXX  XXX XXX",
"XXXXXXXXXXooXXXX XXXX XXX",
"XXXXXXXXXXooXXXX XXX  XXX",
"XXXXXXXXXXooXXXXXoXXXXXXX",
"XXXXooXXXXoooXXXXoXXXXXXX",
"XXXoooXoXXXooXXXooXXXXXXX",
"XXXoXXXXoXXXoXXXXXXXXXoXX",
"XXoooXXXXoXXooXXXXXXooooX",
"XXXXXXXXXXoXXoXXooooooXXX",
"XXXXXXXXXXoXoooooXoXXooXX",
"XXXXXXooooooXooXoXXoXXooX",
"XXXXoooXoooXXXoXooXXXoXoX",
"XXXooXoooooXXXooXXXXXoXoX",
"XXoooXoooXoooooXXoooXXooX",
"XoXXoXooXXooXXooooXooXXoX",
"XoXXXXoXXXoXXXooXXXXXoooX",
"XoXoXXooXXooooooXXXXXXooX",
"XoooXXooXXXooXooXXXXXXoXX",
"XXoooXooXXXoXXXoXXXoXXXXX",
"XXoXXXXoXXXoXXXooXooXXXXX",
"XXXXXoooXXXooooooooXXooXX",
"XXXXXXXooXXooXXXooXXoXXXX",
"XXXXXXXXoXXoXXXXooXoXXXoX",
"XXXXXXXXooXooooooooXXXoXX",
"XXXXXoXXXoooXXXXXXXXXoXXX",
"XXXXXXXXXXoXXXXXXXXXXXXXX",
"XXXXXXXXXXXXXXXXXXXXXXXXX"
};
