/* XPM */
static char *4S[] = {
/* width height ncolors chars_per_pixel */
"25 35 4 1",
/* colors */
"  c #000000",
". c #B00000",
"X c #EAEAEA",
"o c #063A30",
/* pixels */
"XXXXXXXXXXXXXXXXXXXXXXXXX",
"XXXXXX...XXXXXXXXXXXXX XX",
"XXX......XXXoXXXXXXXX  XX",
"XXXX..X.XXXXoXXXXXXXX  XX",
"XXXXX...XXXXooXXXXXX X XX",
"XXXX....XXXXooXXXXXX     ",
"XX..XXX..XXXooXXXXXX    X",
"X..XXXXX..XoXoXXXXXXXXX X",
"X.XXX...XX.oooXXXXXXXXXXX",
"XXXXXXXXXXXXooXXXXXooooXX",
"XXXX....XXXXoXXXXXooXXooX",
"XXXXXXXXXXXoooooXooXXXXoX",
"XXXXXXXXXXXoooXXXoooooooX",
"XXXXXXoooXooXXXXXooXXXXXX",
"XXXXXooXoooXXXXXooooXXXXX",
"XXXXXooooooXXXXXooXooXXXX",
"XXXXXoXXooXXXXXXoXXoXXXXX",
"XXXXXXXXoX......ooooXXXXX",
"XXXXXXXXXX.XXXX.XXXXXXXXX",
"XXXXXXX....XXX....XXXXXXX",
"XXXXXX..X....X.....XXXXXX",
"XXXXXX..XX.....XXX.XXXXXX",
"XXXXXXX.XX.XX..XXX.XXXXXX",
"XXXXXXX....X...XXX.XXXXXX",
"XXXXXXXXX...X..XX..XXXXXX",
"XXXXXooXX.XXX.....XXXXXXX",
"XXooooooX.XXX.XXXXXooXXXX",
"XXoXXXXoo.....XXooooooXXX",
"XXoooXXXooXXXXXXoXXXXooXX",
"XXXXooooooXoooXooXXXXXooX",
"XXXXXXXXooooXoooooooXXXoX",
"XXXXXXXXXooXXoooXXXoooooX",
"XXXXXXXXXooXXXoXXXXXXXXXX",
"XXXXXXXXXXXXXXXXXXXXXXXXX",
"XXXXXXXXXXXXXXXXXXXXXXXXX"
};
