/* XPM */
static char *noname[] = {
/* width height ncolors chars_per_pixel */
"25 35 3 1",
/* colors */
"  c #000000",
". c #B00000",
"X c #EAEAEA",
/* pixels */
"XXXXXXXXXXXXXXXXXXXXXXXXX",
"XXXXXXXXXXXXXXXXXXXXXXXXX",
"XXXXXXXXXXXXXXX XXXXXXXXX",
"XXXXXXXXXXXXXX    XXXXXXX",
"XXXXXX  XXXX       XXXXXX",
"XXXXXXX  X     XXXXXXXXXX",
"XXXXXX   XXXX  XXXXXXXXXX",
"XXXXXX   XXX  X  XXXXXXXX",
"XXXXXX  XXXX      XXXXXXX",
"XXXXX   X          XXXXXX",
"XXXXX   XX   XX  XXXXXXXX",
"XXXX  X XXX XX  X   XXXXX",
"XXXX XX XX            XXX",
"XXX XX      XXXXXXX    XX",
"XX XXX  XXXXXXXXXXXX   XX",
"XXXXXXX XXXXXXXXXXXXX XXX",
"XXXXXXXXXXXXX.XXXXXXXXXXX",
"XXXXXXXXXXXX....XXXXXXXXX",
"XXXXXXXX.XX.XX..XXXXXXXXX",
"XXXXXXXX..XXX..XXXXXXXXXX",
"XXXXXXXXX.X......XXXXXXXX",
"XXXXXXX.....X.XXXXXXXXXXX",
"XXXXXXXXXXX.....XXXXXXXXX",
"XXXXXXX.X....XX..XXXXXXXX",
"XXXXXXX..XX......XXXXXXXX",
"XXXXXXXX.X...X...XXXXXXXX",
"XXXXXXXX..XX....XXXXXXXXX",
"XXXXXXXX.....XX....XXXXXX",
"XXXX..XXX.X.....XX...XXXX",
"XXXXX.........XX.XX...XXX",
"XX.....XXXXX.X....XX...XX",
"XXX.X..........X..XX...XX",
"XXXXX.XX..XXXXXX..XX...XX",
"XXXXXXXXXXXXXX....X...XXX",
"XXXXXXXXXXXXXXXX.....XXXX"
};
