/* XPM */
static char *noname[] = {
/* width height ncolors chars_per_pixel */
"25 35 3 1",
/* colors */
"  c #002065",
". c #B00000",
"X c #EAEAEA",
/* pixels */
"XXXX     XXXXXXX     XXXX",
"XXX  XXX  XXXXX  XXX  XXX",
"XX  X   X  XXX  X   X  XX",
"X  X X X X  X  X X X X  X",
"X X X X X X X X X X X X X",
"X X  X X  X X X  X X  X X",
"X X X X X X X X X X X X X",
"X  X X X X  X  X X X X  X",
"XX  X   X  XXX  X   X  XX",
"XXX  XXX  XXXXX  XXX  XXX",
"XXXX     XXXXXXX     XXXX",
"XXXXXXXXXXXXXXXXXXXXXXXXX",
"XXXXXXXXXX.....XXXXXXXXXX",
"XXXXXXXXX..XXX..XXXXXXXXX",
"XXXXXXXX..X...X..XXXXXXXX",
"XXXXXXX..X.X.X.X..XXXXXXX",
"XXXXXXX.X.X.X.X.X.XXXXXXX",
"XXXXXXX.X..X.X..X.XXXXXXX",
"XXXXXXX.X.X.X.X.X.XXXXXXX",
"XXXXXXX..X.X.X.X..XXXXXXX",
"XXXXXXXX..X...X..XXXXXXXX",
"XXXXXXXXX..XXX..XXXXXXXXX",
"XXXXXXXXXX.....XXXXXXXXXX",
"XXXXXXXXXXXXXXXXXXXXXXXXX",
"XXXX     XXXXXXX     XXXX",
"XXX  XXX  XXXXX  XXX  XXX",
"XX  X   X  XXX  X   X  XX",
"X  X X X X  X  X X X X  X",
"X X X X X X X X X X X X X",
"X X  X X  X X X  X X  X X",
"X X X X X X X X X X X X X",
"X  X X X X  X  X X X X  X",
"XX  X   X  XXX  X   X  XX",
"XXX  XXX  XXXXX  XXX  XXX",
"XXXX     XXXXXXX     XXXX"
};
