/* XPM */
static char *noname[] = {
/* width height ncolors chars_per_pixel */
"25 35 3 1",
/* colors */
"  c #000000",
". c #B00000",
"X c #EAEAEA",
/* pixels */
"XXXXXXXXXXXXXXXXXXXXXXXXX",
"XXXXXXXXXXXXXXXXXXXXXXXXX",
"XXXXXXXXXXX  XXXXXXXXXXXX",
"XXXXXXXXXXXX  XXXXXXXXXXX",
"XXXXXXXXXXXX   XX XXXXXXX",
"XXXXXXXXXXXX  XX   XXXXXX",
"XXXXXXXXXXX         XXXXX",
"XXXX         XXXXX   XXXX",
"XXXXX  XXXX XXXXXX   XXXX",
"XXXXXXXX  XXX   XXX XXXXX",
"XXXXXXXXX   XX   XXXXXXXX",
"XXXXXXXXX  XXXX    XXXXXX",
"XXXXXXXX  XXXXXX   XXXXXX",
"XXXXXXX  XXXXXXXX  XXXXXX",
"XXXXXX XXXXXXXXXXX XXXXXX",
"XXXXXXXXXXXXXXXXXXXXXXXXX",
"XXXXXXXXXXXXX.XXXXXXXXXXX",
"XXXXXXXXXXXX....XXXXXXXXX",
"XXXXXXXX.XX.XX..XXXXXXXXX",
"XXXXXXXX..XXX..XXXXXXXXXX",
"XXXXXXXXX.X......XXXXXXXX",
"XXXXXXX.....X.XXXXXXXXXXX",
"XXXXXXXXXXX.....XXXXXXXXX",
"XXXXXXX.X....XX..XXXXXXXX",
"XXXXXXX..XX......XXXXXXXX",
"XXXXXXXX.X...X...XXXXXXXX",
"XXXXXXXX..XX....XXXXXXXXX",
"XXXXXXXX.....XX....XXXXXX",
"XXXX..XXX.X.....XX...XXXX",
"XXXXX.........XX.XX...XXX",
"XX.....XXXXX.X....XX...XX",
"XXX.X..........X..XX...XX",
"XXXXX.XX..XXXXXX..XX...XX",
"XXXXXXXXXXXXXX....X...XXX",
"XXXXXXXXXXXXXXXX.....XXXX"
};
