/* XPM */
static char *noname[] = {
/* width height ncolors chars_per_pixel */
"25 35 3 1",
/* colors */
"  c #002065",
". c #B00000",
"X c #EAEAEA",
/* pixels */
"XXXXXXXXXXXXXXXXXXXXXXXXX",
"XXXXXXXXXXXXXXXXXXXXXXXXX",
"XXX   XXXXX   XXXXX   XXX",
"X  XXX  X  XXX  X  XXX  X",
"X X   X X X   X X X   X X",
" X  X  X X  X  X X  X  X ",
" X X X X X X X X X X X X ",
" X  X  X X  X  X X  X  X ",
"X X   X X X   X X X   X X",
"X  XXX  X  XXX  X  XXX  X",
"XXX   XXXXX   XXXXX   XXX",
"XXXXXXXXXXXXXXXXXXXXXXXXX",
"XXXXXXXXXXXXXXXXXXXXXXXXX",
"XXX...XXXXX...XXXXX...XXX",
"X..XXX..X..XXX..X..XXX..X",
"X.X...X.X.X...X.X.X...X.X",
".X..X..X.X..X..X.X..X..X.",
".X.X.X.X.X.X.X.X.X.X.X.X.",
".X..X..X.X..X..X.X..X..X.",
"X.X...X.X.X...X.X.X...X.X",
"X..XXX..X..XXX..X..XXX..X",
"XXX...XXXXX...XXXXX...XXX",
"XXXXXXXXXXXXXXXXXXXXXXXXX",
"XXXXXXXXXXXXXXXXXXXXXXXXX",
"XXX   XXXXX   XXXXX   XXX",
"X  XXX  X  XXX  X  XXX  X",
"X X   X X X   X X X   X X",
" X  X  X X  X  X X  X  X ",
" X X X X X X X X X X X X ",
" X  X  X X  X  X X  X  X ",
"X X   X X X   X X X   X X",
"X  XXX  X  XXX  X  XXX  X",
"XXX   XXXXX   XXXXX   XXX",
"XXXXXXXXXXXXXXXXXXXXXXXXX",
"XXXXXXXXXXXXXXXXXXXXXXXXX"
};
