/* XPM */
static char *noname[] = {
/* width height ncolors chars_per_pixel */
"35 35 3 1",
/* colors */
"  c #000000",
". c None",
"X c #FFFFFF",
/* pixels */
".............         .............",
"..........   XXXXXXXXX   ..........",
"........  XXXXXXXXXXXXXXX  ........",
"....... XXXXXXXX   XXXXXXXX .......",
"...... XXXXXXXXXX   XXXXXXXX ......",
"..... XXXXXXXXXXX   XXXXXXXXX .....",
".... XXXXXXXXXXXX  XXXXXXXXXXX ....",
"... XXXXXXXXXXXXX  X  XXXXXXXXX ...",
".. XXXXXXXXXXXXXX      XXXXXXXXX ..",
".. XXXXXXXXX           XXXXXXXXX ..",
". XXXXXXXXXXXX     XXXXXXXXXXXXXX .",
". XXXXXXXXXXXXXXX  X   XXXXXXXXXX .",
". XXXXXXXXXXXXXX        XXXXXXXXX .",
" XXXXXXXXXX  X           XXXXXXXXX ",
" XXXXXXXXXX    XX  XXXX   XXXXXXXX ",
" XXXXXXXXXX   XX      X   XXXXXXXX ",
" XXXXXXXXXX               XXXXXXXX ",
" XXXXXXXXXXX   XX  XXX   XXXXXXXXX ",
" XXXXXXXXXXXX           XXXXXXXXXX ",
" XXXXXXXXXXXXX  X  XX  XXXXXXXXXXX ",
" XXXXXXXXXXXXXX      XXXXXXXXXXXXX ",
" XXXXXXXXXXXXX     X  XXXXXXXXXXXX ",
". XXXXXXXXXXX   X  XX  XXXXXXXXXX .",
". XXXXXXXXXX   XX  XX   XXXXXXXXX .",
". XXXXXXXXX   XXX  XXX   XXXXXXXX .",
".. XXXXXXX     XX  XXX     XXXXX ..",
".. XXXXX  XXXX     XXXX     XXXX ..",
"... XXXXXXXXXXX    XXXXXXXXXXXX ...",
".... XXXXXXXXXXX   XXXXXXXXXXX ....",
"..... XXXXXXXXXXX  XXXXXXXXXX .....",
"...... XXXXXXXXXX XXXXXXXXXX ......",
"....... XXXXXXXXXXXXXXXXXXX .......",
"........  XXXXXXXXXXXXXXX  ........",
"..........   XXXXXXXXX   ..........",
".............         ............."
};
