/* XPM */
static char *noname[] = {
/* width height ncolors chars_per_pixel */
"35 35 3 1",
/* colors */
"  c #000000",
". c None",
"X c #FFFFFF",
/* pixels */
".............         .............",
"..........   XXXXXXXXX   ..........",
"........  XXXXXXXXXXXXXXX  ........",
"....... XXXXXX  XXXXXXXXXXX .......",
"...... XXXXXXXX    XXXXXXXXX ......",
"..... XXXXXXXXXX     XXXXXXXX .....",
".... XXXXXXXXXXXX   XXXXXXXXXX ....",
"... XXXXXXXXXXXXX   XXXXXXXXXXX ...",
".. XXXXXXXXXXXXXX  XXXXXXXXXXXXX ..",
".. XXXXXXXXXXXXXX  X XXXXXXXXXXX ..",
". XXXXXXXXXXXXXXX     XXXXXXXXXXX .",
". XXXXXXXXXXXXXX       XXXXXXXXXX .",
". XXXXXXXXXXX   X    XXXXXXXXXXXX .",
" XXXXXXXXXXXXXXXX  X  XXXXXXXXXXXX ",
" XXXXXXXXXXXXXXXX XX   XXXXXXXXXXX ",
" XXXXXXXXXXX XXXX      XXXXXXXXXXX ",
" XXXXXXXXXXX   X           XXXXXXX ",
" XXXXXXXXXXXX      X  XX    XXXXXX ",
" XXXXXXXXXXX     XX   XXX   XXXXXX ",
" XXXXXX XXX     X    XXXX   XXXXXX ",
" XXXXXXX X XXX     XX  XX  XXXXXXX ",
" XXXXXXX  XXX   X       X  XXXXXXX ",
". XXXXXXX  XXXX     XXXXX  XXXXXX .",
". XXXXXXX   X   X  XXXXXX  XXXXXX .",
". XXXXXXXX   XXXX XXXXXX   XXXXXX .",
".. XXXXXXXX  XXXXX         XXXXX ..",
".. XXXXXXXXX XXXXXXXX      XXXXX ..",
"... XXXXXXXXXXXXXXXXXXXX  XXXXX ...",
".... XXXXXXXXXXXXXXXXXXXXXXXXX ....",
"..... XXXXXXXXXXXXXXXXXXXXXXX .....",
"...... XXXXXXXXXXXXXXXXXXXXX ......",
"....... XXXXXXXXXXXXXXXXXXX .......",
"........  XXXXXXXXXXXXXXX  ........",
"..........   XXXXXXXXX   ..........",
".............         ............."
};
