/* XPM */
static char *noname[] = {
/* width height ncolors chars_per_pixel */
"35 35 3 1",
/* colors */
"  c #000000",
". c None",
"X c #FFFFFF",
/* pixels */
".............         .............",
"..........   XXXXXXXXX   ..........",
"........  XXXXXXXXXXXXXXX  ........",
"....... XXXXXXXXXXXXXXXXXXX .......",
"...... XXXXXXXXXXXXXXXXXXXXX ......",
"..... XXXXXXXXXXXXXXXXXXXXXXX .....",
".... XXXXXXXXXXXXXXXXXXXXXXXXX ....",
"... XXXXXXXXXXXXXXXXXXXXXXXXXXX ...",
".. XXXXXXXXXXXXXXXXXXXXXXXXXXXXX ..",
".. XXXXXXXXXXXXXXX   XXXXXXXXXXX ..",
". XXXXXXXXXXXXXXXX     XXXXXXXXXX .",
". XXXXXXXXXXXXXXXXX    XXXXXXXXXX .",
". XXXXXXXXXXXX XXXX    XXXXXXXXXX .",
" XXXXXXXXXXX    XXX   XXXXXXXXXXXX ",
" XXXXXXXXXXX     XX  XX   XXXXXXXX ",
" XXXXXXXXXXXX    XX  XX    XXXXXXX ",
" XXXXXXXXXXXXX  XXX  X      XXXXXX ",
" XXXXXXX     X  XXX       XXXXXXXX ",
" XXXXXXX     X  XXX    XXXXXXXXXXX ",
" XXXXXXXX   XX  XXX  XXXXXXXXXXXXX ",
" XXXXXXXXXXXXX  XXX  XXXXXXXXXXXXX ",
" XXXXXXXXXXXXX  X X  XXXXXXXXXXXXX ",
". XXXXXX XXXXX   XX   XXXXXXXXXXX .",
". XXXXXX  XXX   XXX         XXXXX .",
". XXXXXX        XXXX        XXXXX .",
".. XXXX      X XXXXXXX     XXXXX ..",
".. XXXXX   XXX XXXXXXXXXXXXXXXXX ..",
"... XXXXXXXXXXXXXXXXXXXXXXXXXXX ...",
".... XXXXXXXXXXXXXXXXXXXXXXXXX ....",
"..... XXXXXXXXXXXXXXXXXXXXXXX .....",
"...... XXXXXXXXXXXXXXXXXXXXX ......",
"....... XXXXXXXXXXXXXXXXXXX .......",
"........  XXXXXXXXXXXXXXX  ........",
"..........   XXXXXXXXX   ..........",
".............         ............."
};
