/* XPM */
static char *[] = {
/* width height ncolors chars_per_pixel */
"20 28 115 2",
/* colors */
"   c #CED5D4",
" . c #5E1C17",
" X c #B3A19F",
" o c #2B564E",
" O c #E3CECE",
" + c #D89F9F",
" @ c #5C6D67",
" # c #A1B2AE",
" $ c #A20504",
" % c #BCC7C5",
" & c #7D9591",
" * c #7C9590",
" = c #D08383",
" - c #C55454",
" ; c #7E2522",
" : c #B22827",
" > c #587A73",
" , c #7C3B37",
" < c #AE5251",
" 1 c #282E26",
" 2 c #CE7A7A",
" 3 c #B20909",
" 4 c #C34B4B",
" 5 c #585B55",
" 6 c #BE7574",
" 7 c #888884",
" 8 c #6C1713",
" 9 c #BA9F9E",
" 0 c #31544C",
" q c #B00000",
" w c #214F46",
" e c #7A1310",
" r c #E1C4C4",
" t c #9A9592",
" y c #98ABA7",
" u c #BC6C6B",
" i c #B3C0BE",
" p c #738E89",
" a c #B92626",
" s c #EAEAEA",
" d c #B77776",
" f c #651915",
" g c #869D98",
" h c #632F2A",
" j c #2A564E",
" k c #D79F9F",
" l c #E8E1E1",
" z c #A1B2AF",
" x c #CC7070",
" c c #61807A",
" v c #3C2821",
" b c #D8DCDB",
" n c #0D382E",
" m c #971311",
" M c #51211B",
" N c #D59696",
" B c #B92525",
" V c #CA6767",
" C c #18483F",
" Z c #8FA4A0",
" A c #4F726B",
" S c #73332F",
" D c #C6CECC",
" F c #98312F",
" G c #2D4139",
" H c #6A8782",
" J c #C24B4B",
" K c #B71C1C",
" L c #E1E3E3",
" P c #063A30",
" I c #7D9691",
" U c #3D645C",
" Y c #B51313",
" T c #E0C4C4",
" R c #587973",
" E c #4D4A44",
" W c #7A504C",
" Q c #CFD5D4",
" ! c #6A4B46",
" ~ c #8E0C0A",
" ^ c #DEBBBB",
" / c #D38C8C",
" ( c #812E2B",
" ) c #DCB2B2",
" _ c #D18383",
" ` c #43251F",
" ' c #98AAA7",
" ] c #7A4F4B",
" [ c #AA7C7A",
" { c #748F8A",
" } c #870E0C",
" | c #738F89",
".  c #345D55",
".. c #C96767",
".X c #BE3838",
".o c #534842",
".O c #D7BDBD",
".+ c #4F726C",
".@ c #C5CECC",
".# c #B3A2A0",
".$ c #97312F",
".% c #C75E5E",
".& c #636B65",
".* c #BC2F2F",
".= c #224F46",
".- c #A05755",
".; c #3D645D",
".: c #2A3830",
".> c #B3C0BD",
"., c #51201B",
".< c #BA2626",
".1 c #E5D7D7",
".2 c #1A332A",
".3 c #4F3630",
".4 c None",
/* pixels */
" s s   L s s s s s s s s T.1.1 T l O s s",
" s s c % s s s + b i s s.. 2 2.. _ x r s",
" s.> j %.%.% ).*.- c s s.. 2 2.. _ x x O",
" D.= | L ^ ^ V 3.O g # - k V V k.< Y = 4",
" % P Z s l ^ V 3.* S Z T.< Y Y.< N J V k",
" g U Z s _.X /.* s.> I u x.X.X x q a 2..",
".  Z Z s.* r r.* * s c.- . } } q K 2 a J",
".  Z Z s.* s 2 k z & c X n., 6 B 3 K q N",
".  Z Z s.* # g L % c c F 1 $., e N Y = 4",
". .> I b.* s c % %.;.; {.2 ` ` M Y x x _",
". .> j %.* s c %.& ] ] 7 S > P ~.* r x _",
".: u.+ %.* s c o 1 ; ; E m.= P X k 2 O l",
" 0 =.3 P o c c y : d d : 9 8 P y.@ s s s",
" G x 5 P % c c v < , , < h W P P w i s s",
" G x 5 P b i c v @.o.o @.3 p.; P Z I c Q",
" 0 t C P s s c P j [ [.$ P c   % R b % A",
" P C # R j %.+ P k V V k A g C y z & s s",
" C ' s s c c c c ( 2 2.. g p p C H Z D s",
" z s s s s s s s f.o.o @ C U U C A P U c",
" s s s s s s s - : %.- ~.# ~ [ % % % % %",
" s s s s s.1 V.* ^.% s.* s + = l s s s s",
" s s s s.1 - / s O N s 2 + s N O s s s s",
" s s s s ^.X x O s s s s.* s s s s s s s",
" s s s s ^.% O l. . . .  m & s s s s s s",
" L   c o.  ! !.  s s s.* s Z Z R z & s s",
" Q p.; % s s s s.1 ) ).. s Z > Z H i s s",
" s D.; A s s s s.1 2 a ^ s D Z w b i ' Q",
". .  C y s s s -.* V ^ 4 s s s.@. .  C o"
};
