/* XPM */
static char *[] = {
/* width height ncolors chars_per_pixel */
"20 28 41 1",
/* colors */
"  c #000000",
". c #9F9F9F",
"X c #E3CECE",
"o c #D89F9F",
"O c #C55454",
"+ c #CE7A7A",
"@ c #B20909",
"# c #B00000",
"$ c #E1C4C4",
"% c #4B4B4B",
"& c #B92626",
"* c #EAEAEA",
"= c #2F2F2F",
"- c #D79F9F",
"; c #E8E1E1",
": c #CC7070",
"> c #CECECE",
", c #D59696",
"< c #B92525",
"1 c #B2B2B2",
"2 c #C24B4B",
"3 c #B71C1C",
"4 c #8C8C8C",
"5 c #B51313",
"6 c #E0C4C4",
"7 c #DEBBBB",
"8 c #D38C8C",
"9 c #5E5E5E",
"0 c #545454",
"q c #DCB2B2",
"w c #BE3838",
"e c #383838",
"r c #262626",
"t c #D7D7D7",
"y c #C75E5E",
"u c #BC2F2F",
"i c #C5C5C5",
"p c #BBBBBB",
"a c #BA2626",
"s c #E5D7D7",
"d c None",
/* pixels */
"********************",
"********************",
"********************",
"********************",
"**************>p****",
"********t44444e 41**",
"*1999999%e444444 r1*",
"*t%  %ppp>******  4*",
"***0************i=.*",
"********************",
"********************",
"********************",
"**********X;********",
"*********$w:o*******",
"******,XX:83u*******",
"******ya;X+@6*******",
"*****s7<,55au+******",
"*****qyy2ww:o*******",
"*****qq+2#O85,******",
"*****83-,#3u#y******",
"******y,u3:<@+******",
"******y#8Owy388s****",
"***++*q3:#wy38w2+***",
"***6@uu@a##,-+X<@+**",
"*o5a#2777::<a#8*##8*",
"**,X5y&#yyyy7#8*##8*",
"****o*q8***+2#8+#w$*",
"***********6,#3@<X**"
};
