/* XPM */
static char *[] = {
/* width height ncolors chars_per_pixel */
"20 28 33 1",
/* colors */
"  c #C5CAD5",
". c #C4CAD4",
"X c #6779A0",
"o c #2F4880",
"O c #5E719A",
"+ c #26407A",
"@ c #002065",
"# c #6A0D28",
"$ c #B92626",
"% c #EAEAEA",
"& c #B2B9CA",
"* c #8C99B5",
"= c #CC7070",
"- c #710B24",
"; c #8391AF",
": c #D59696",
"> c #B92525",
", c #26407B",
"< c #25407A",
"1 c #C24B4B",
"2 c #9FA9C0",
"3 c #7081A5",
"4 c #9FAABF",
"5 c #67799F",
"6 c #E1E2E5",
"7 c #09286A",
"8 c #8391B0",
"9 c #B2BACA",
"0 c #546995",
"q c #1C3875",
"w c #BA2626",
"e c #4B618F",
"r c None",
/* pixels */
"%%%%%%%%%%%%%%%%%%%%",
"%%%%%%%%%%%%%%%%%%%%",
"%%%%%%%%%%%%%%%%%%%%",
"%%%%%%%%%%%%%%%%%%%%",
"%%%%%%%%%%%%%%%%%%%%",
"%%%%%%%2****2%%%%%%%",
"%%%%%9O8q00q8O9%%%%%",
"%%%% Xe,4XX4,eX %%%%",
"%%%.7o;6<33<6;o7.%%%",
"%%&5o%O3@@@@3O%o5&%%",
"%%Oe8O+@####@+O8eO%%",
"%2;<63@->==>-@36<;2%",
"%*q4,@#w:11:w#@,4q*%",
"%*053@#=1$$1=#@350*%",
"%*053@#=1$$1=#@350*%",
"%*q4,@#w:11:w#@,4q*%",
"%2;<63@->==>-@36<;2%",
"%%Oe8O+@####@+O8eO%%",
"%%&5o%O3@@@@3O%o5&%%",
"%%%.7o;6<33<6;o7.%%%",
"%%%% Xe,4XX4,eX %%%%",
"%%%%%9O8q00q8O9%%%%%",
"%%%%%%%2****2%%%%%%%",
"%%%%%%%%%%%%%%%%%%%%",
"%%%%%%%%%%%%%%%%%%%%",
"%%%%%%%%%%%%%%%%%%%%",
"%%%%%%%%%%%%%%%%%%%%",
"%%%%%%%%%%%%%%%%%%%%"
};
