/* XPM */
static char *[] = {
/* width height ncolors chars_per_pixel */
"20 28 80 1",
/* colors */
"  c #000000",
". c #CED5D4",
"X c #2B564E",
"o c #9F9F9F",
"O c #D89F9F",
"+ c #A1B2AE",
"@ c #A20504",
"# c #BCC7C5",
"$ c #7D9591",
"% c #7C9590",
"& c #E1C5C5",
"* c #C55454",
"= c #587A73",
"- c #CE7A7A",
"; c #B20909",
": c #B00000",
"> c #214F46",
", c #98ABA7",
"< c #4B4B4B",
"1 c #B3C0BE",
"2 c #EAEAEA",
"3 c #0F4137",
"4 c #2F2F2F",
"5 c #869D98",
"6 c #252525",
"7 c #2A564E",
"8 c #A1B2AF",
"9 c #CC7070",
"0 c #61807A",
"q c #CECECE",
"w c #D8DCDB",
"e c #131313",
"r c #C4C4C4",
"t c #D59696",
"y c #B92525",
"u c #18483F",
"i c #B2B2B2",
"p c #C59190",
"a c #8FA4A0",
"s c #4F726B",
"d c #C6CECC",
"f c #6A8782",
"g c #C24B4B",
"h c #B71C1C",
"j c #E1E3E3",
"k c #969696",
"l c #063A30",
"z c #7D9691",
"x c #3D645C",
"c c #8C8C8C",
"v c #9E6B69",
"b c #B51313",
"n c #587973",
"m c #CFD5D4",
"M c #7A7A7A",
"N c #707070",
"B c #DEBBBB",
"V c #D38C8C",
"C c #5E5E5E",
"Z c #98AAA7",
"A c #748F8A",
"S c #738F89",
"D c #345D55",
"F c #BE3838",
"G c #383838",
"H c #4F726C",
"J c #E1E1E1",
"K c #C5CECC",
"L c #262626",
"P c #D7D7D7",
"I c #C75E5E",
"U c #BC2F2F",
"Y c #224F46",
"T c #C5C5C5",
"R c #3D645D",
"E c #B3C0BD",
"W c #BBBBBB",
"Q c #BA2626",
"! c #E5D7D7",
"~ c None",
/* pixels */
"BB!222222222Jq222222",
"IFV2221a2222WGr2cccP",
"2VV22E7l0Z22WGr2cccP",
"2VV2dYll,022WC2244o2",
"&UU&dDuld$22 <<k6WWW",
"2222aaRs2222<LL<eCCC",
"2222>aRs0Z22WCiPeCi2",
"22228Dul#5+2WC226Nc2",
"222K2aYd2++22222TM22",
"221fa=a2222222222222",
"220sAlx00Z2222Zm2222",
"22.#XH###.2222.s2222",
"22222!gQQg!22wH#2222",
"2222V*:BB:*Vpz7A2222",
"222-:::gg:::@v0A%222",
"22-;B9::y99B:I0#D222",
"222UB9:t2V::U2.s2222",
"222-::::OV::-20#2222",
"22Z09:*VbF*h220#2222",
"dDulB:V2:g!U2+u#2222",
"Xlll&UUUUUUU2al#2222",
"#lll2daaaaaa2al#2222",
"w=ll0xlAaaRl0xl#2222",
"dYS77##j22.#lllX2222",
"2222n22222222+D37##j",
"222222222222222%lll#",
"2222222222222222a=l#",
"22222222222222222w#j"
};
