/* XPM */
static char *[] = {
/* width height ncolors chars_per_pixel */
"20 28 74 1",
/* colors */
"  c #CED5D4",
". c #2B564E",
"X c #9F9F9F",
"o c #E3CECE",
"O c #5C6D67",
"+ c #A1B2AE",
"@ c #A34240",
"# c #BCC7C5",
"$ c #7C9590",
"% c #E1C5C5",
"& c #C55454",
"* c #587A73",
"= c #CE7A7A",
"- c #B20909",
"; c #B00000",
": c #214F46",
"> c #E1C4C4",
", c #98ABA7",
"< c #BC6C6B",
"1 c #4B4B4B",
"2 c #653833",
"3 c #B3C0BE",
"4 c #738E89",
"5 c #B92626",
"6 c #EAEAEA",
"7 c #0F4137",
"8 c #2A564E",
"9 c #E8E1E1",
"0 c #A1B2AF",
"q c #CC7070",
"w c #61807A",
"e c #CECECE",
"r c #D8DCDB",
"t c #131313",
"y c #D59696",
"u c #B92525",
"i c #18483F",
"p c #8FA4A0",
"a c #4F726B",
"s c #C6CECC",
"d c #C24B4B",
"f c #B71C1C",
"g c #E1E3E3",
"h c #969696",
"j c #063A30",
"k c #3D645C",
"l c #B51313",
"z c #E0C4C4",
"x c #4A231D",
"c c #587973",
"v c #CFD5D4",
"b c #BCA9A7",
"n c #9C6260",
"m c #DEBBBB",
"M c #D38C8C",
"N c #5E5E5E",
"B c #DCB2B2",
"V c #98AAA7",
"C c #748F8A",
"Z c #738F89",
"A c #345D55",
"S c #BE3838",
"D c #4F726C",
"F c #C5CECC",
"G c #C75E5E",
"H c #BC2F2F",
"J c #224F46",
"K c #816C68",
"L c #3D645D",
"P c #B3C0BD",
"I c #BBBBBB",
"U c #BA2626",
"Y c #E5D7D7",
"T c None",
/* pixels */
"66omyG66666666666666",
"66yldSMY666666666666",
"666HmSMY666666Vv66he",
"666HmlHH&66666w#6XtI",
"9md;HHlm6666sJj,AXtI",
"oG5;MMSq66666pjj$6NI",
"6B5;M&;qGy666pjC66N1",
"%fquHf;mmo666pZg66eI",
"666Hmqf%6666jjjjF666",
"666=GGB66666j88jA666",
"666666666666j88C0666",
"66666666666cjD#gAAAs",
"6rD..Dr69mmmz6wjFrD#",
"6pjCCjp6q5GGfBwa:*kv",
"6spp:K@GfB66;G3rpps6",
"6666bfqm-=6&;lH%6666",
"6666mG66UlH-&6Gy6666",
"6666oq>6mSMf66G;6666",
"66666MM6d;;;=B5q6666",
"66666MfH;dmu-fq9AA+6",
"66666666mG66-<rAcpj#",
"66666666mSMM=ppA6pkv",
"6PwwwwwwOxn26pkiw4s6",
"sJjj#ZjjjjJ7crDjjw66",
"7JJs6rDj0AijjjZ8jDr6",
":*p66pjj$6Vwww8ajj*r",
"jLs66sLC6666663rp*j#",
"# 6666 g666666666rD#"
};
