/* XPM */
static char *[] = {
/* width height ncolors chars_per_pixel */
"20 28 13 1",
/* colors */
"  c #BCC7C5",
". c #7C9590",
"X c #98ABA7",
"o c #EAEAEA",
"O c #2A564E",
"+ c #A1B2AF",
"@ c #61807A",
"# c #18483F",
"$ c #063A30",
"% c #748F8A",
"& c #4F726C",
"* c #C5CECC",
"= c None",
/* pixels */
"ooooooo*$##$*ooooooo",
"ooooooo.$@@$.ooooooo",
"oooooooo%@@%oooooooo",
"oooooooo @@ oooooooo",
"ooooooooX&&Xoooooooo",
"ooooooo+$OO$+ooooooo",
"ooooooo+$OO$+ooooooo",
"ooooooooX&&Xoooooooo",
"oooooooo @@ oooooooo",
"oooooooo%@@%oooooooo",
"ooooooo.$@@$.ooooooo",
"ooooooo*$##$*ooooooo",
"oooooooooooooooooooo",
"oooooooooooooooooooo",
"oooooooooooooooooooo",
"oooooooooooooooooooo",
"ooooooo*$##$*ooooooo",
"ooooooo.$@@$.ooooooo",
"oooooooo%@@%oooooooo",
"oooooooo @@ oooooooo",
"ooooooooX&&Xoooooooo",
"ooooooo+$OO$+ooooooo",
"ooooooo+$OO$+ooooooo",
"ooooooooX&&Xoooooooo",
"oooooooo @@ oooooooo",
"oooooooo%@@%oooooooo",
"ooooooo.$@@$.ooooooo",
"ooooooo*$##$*ooooooo"
};
