/* XPM */
static char *[] = {
/* width height ncolors chars_per_pixel */
"20 28 46 1",
/* colors */
"  c #000000",
". c #9F9F9F",
"X c #E3CECE",
"o c #D89F9F",
"O c #C55454",
"+ c #CE7A7A",
"@ c #B20909",
"# c #B00000",
"$ c #E1C4C4",
"% c #4B4B4B",
"& c #B92626",
"* c #EAEAEA",
"= c #2F2F2F",
"- c #252525",
"; c #D79F9F",
": c #E8E1E1",
"> c #CC7070",
", c #CECECE",
"< c #131313",
"1 c #C4C4C4",
"2 c #090909",
"3 c #D59696",
"4 c #B92525",
"5 c #C24B4B",
"6 c #B71C1C",
"7 c #969696",
"8 c #8C8C8C",
"9 c #B51313",
"0 c #E0C4C4",
"q c #7A7A7A",
"w c #DEBBBB",
"e c #D38C8C",
"r c #5E5E5E",
"t c #545454",
"y c #DCB2B2",
"u c #BE3838",
"i c #383838",
"p c #D7D7D7",
"a c #C75E5E",
"s c #BC2F2F",
"d c #1C1C1C",
"f c #C5C5C5",
"g c #BBBBBB",
"h c #BA2626",
"j c #E5D7D7",
"k c None",
/* pixels */
"********************",
"********************",
"********************",
"**********q=t*******",
"****gggg2====q******",
"****ri %q***********",
"*****18p************",
"*************.=f****",
"**,ggggg7<=====2-,**",
"**7<  irr7*****= r**",
"***.d81********. r**",
"****1***********g,**",
"**********X:********",
"*********$u>o*******",
"******3XX>e6s*******",
"******ah:X+@0*******",
"*****jw4399hs+******",
"*****yaa5uu>o*******",
"*****yy+5#Oe93******",
"*****e6;3#6s#a******",
"******a3s6>4@+******",
"******a#eOua6eej****",
"***++*y6>#ua6eu5+***",
"***0@ss@h##3;+X4@+**",
"*o9h#5www>>4h#e*##e*",
"**3X9a&#aaaaw#e*##e*",
"****o*ye***+5#e+#u$*",
"***********03#6@4X**"
};
