/* XPM */
static char *[] = {
/* width height ncolors chars_per_pixel */
"20 28 28 1",
/* colors */
"  c #6779A0",
". c #2F4880",
"X c #96A2BA",
"o c #5E719A",
"O c #26407A",
"+ c #D7DADF",
"@ c #385185",
"# c #002065",
"$ c #EAEAEA",
"% c #133070",
"& c #C4CAD5",
"* c #8C99B5",
"= c #546895",
"- c #BBC2CF",
"; c #8391AF",
": c #25407A",
"> c #CED2DA",
", c #7081A5",
"< c #385085",
"1 c #9FAABF",
"2 c #67799F",
"3 c #09286A",
"4 c #8391B0",
"5 c #4B6090",
"6 c #7A89AA",
"7 c #546995",
"8 c #4B618F",
"9 c None",
/* pixels */
"$$$$$$$$$$$$$$$$$$$$",
"$$$$$$$$$$$$$$$$$$$$",
"$$$$$$$$oooo$$$$$$$$",
"$$$$$$$=:--:=$$$$$$$",
"$$$$$+ 1X##X1 +$$$$$",
"$$$$+7*.8OO8.*7+$$$$",
"$$$$-<,%2662%,<-$$$$",
"$$$$-oo#1  1#oo-$$$$",
"$$$$-8 35;;53 8-$$$$",
"$$$$>@*.,<<,.*@>$$$$",
"$$$$$&,4,##,4,&$$$$$",
"$$$$$$>55--55>$$$$$$",
"$$$$$$$$....$$$$$$$$",
"$$$$$$$$$$$$$$$$$$$$",
"$$$$$$$$$$$$$$$$$$$$",
"$$$$$$$$....$$$$$$$$",
"$$$$$$>55--55>$$$$$$",
"$$$$$&,4,##,4,&$$$$$",
"$$$$>@*.,<<,.*@>$$$$",
"$$$$-8 35;;53 8-$$$$",
"$$$$-oo#1  1#oo-$$$$",
"$$$$-<,%2662%,<-$$$$",
"$$$$+7*.8OO8.*7+$$$$",
"$$$$$+ 1X##X1 +$$$$$",
"$$$$$$$=:--:=$$$$$$$",
"$$$$$$$$oooo$$$$$$$$",
"$$$$$$$$$$$$$$$$$$$$",
"$$$$$$$$$$$$$$$$$$$$"
};
