/* XPM */
static char *[] = {
/* width height ncolors chars_per_pixel */
"20 28 60 1",
/* colors */
"  c #CED5D4",
". c #2B564E",
"X c #9F9F9F",
"o c #D89F9F",
"O c #A1B2AE",
"+ c #BCC7C5",
"@ c #7C9590",
"# c #C55454",
"$ c #838383",
"% c #587A73",
"& c #B00000",
"* c #214F46",
"= c #E1C4C4",
"- c #98ABA7",
"; c #4B4B4B",
": c #738E89",
"> c #EAEAEA",
", c #869D98",
"< c #252525",
"1 c #2A564E",
"2 c #A1B2AF",
"3 c #CC7070",
"4 c #61807A",
"5 c #CECECE",
"6 c #D8DCDB",
"7 c #131313",
"8 c #C4C4C4",
"9 c #18483F",
"0 c #B2B2B2",
"q c #8FA4A0",
"w c #4F726B",
"e c #C6CECC",
"r c #C24B4B",
"t c #E1E3E3",
"y c #969696",
"u c #063A30",
"i c #3D645C",
"p c #8C8C8C",
"a c #587973",
"s c #CFD5D4",
"d c #707070",
"f c #D38C8C",
"g c #5E5E5E",
"h c #545454",
"j c #98AAA7",
"k c #748F8A",
"l c #738F89",
"z c #345D55",
"x c #4F726C",
"c c #C5CECC",
"v c #D7D7D7",
"b c #BC2F2F",
"n c #224F46",
"m c #1C1C1C",
"M c #3D645D",
"N c #B3C0BD",
"B c #BBBBBB",
"V c #BA2626",
"C c #E5D7D7",
"Z c None",
/* pixels */
">>>>>>>>>>>>>>>>>vv>",
">=ffo>>>2>>>>>>>php>",
">f#fb>>>,j>>>>ygmpd5",
">CC#b>>>+4>>>>gy8>gB",
">CrV>>>>>qq>>v;yBddB",
">f&3o>>>>qq>>0g77ggg",
">=ffo>>>>qq>>>y7X>>>",
">>>>>>>>>qq>aX$<>>>>",
">>>>>>>>>qne>X$;h>>>",
">>>>>>>>6%q>>>y5>>>>",
">>js>>>>+Me>>>j4444s",
">O,t>>>a+4>azz9-1+x+",
"+9O>++6>1+x+>>>>>>4u",
"k4>>4iq>uuis>>>>>eMw",
"u4>>>qq@*qe>>>>>>q%6",
"+,O>>qqzc>>>>>>>>66>",
">>>a1lu.>>>>>66>a>>>",
">>>>4iu+>>>>>qq2>>>>",
">>>>>quw>>>>>e:,4j>>",
">>>>>quu>>>>>>4.+ >>",
">>>>>qqztlq>>>4+>>>>",
">>>>>qqz+1N>>>4+>>>>",
">>>>>qi9w4>>>>4+>>>>",
">>>>>6xuu9O>>>4+>>>>",
">>>>>Ozzuuq>>qne>>>>",
">>>>>>>>wu%66%q>>>>>",
">>>>>>>>6qq66qe>>>>>",
">>>>>>>>>>>>>>>>>>>>"
};
