/* XPM */
static char *[] = {
/* width height ncolors chars_per_pixel */
"20 28 79 1",
/* colors */
"  c #CED5D4",
". c #2B564E",
"X c #9F9F9F",
"o c #E3CECE",
"O c #D89F9F",
"+ c #A1B2AE",
"@ c #A34240",
"# c #BCC7C5",
"$ c #7D9591",
"% c #7C9590",
"& c #E1C5C5",
"* c #C55454",
"= c #838383",
"- c #7E2522",
"; c #587A73",
": c #CE7A7A",
"> c #B20909",
", c #676767",
"< c #888884",
"1 c #6C1713",
"2 c #B00000",
"3 c #214F46",
"4 c #E1C4C4",
"5 c #98ABA7",
"6 c #BC6C6B",
"7 c #B3C0BE",
"8 c #B92626",
"9 c #EAEAEA",
"0 c #0F4137",
"q c #2F2F2F",
"w c #252525",
"e c #2A564E",
"r c #E8E1E1",
"t c #CC7070",
"y c #61807A",
"u c #D8DCDB",
"i c #C4C4C4",
"p c #D59696",
"a c #B92525",
"s c #18483F",
"d c #B2B2B2",
"f c #8FA4A0",
"g c #4F726B",
"h c #C6CECC",
"j c #6A8782",
"k c #C24B4B",
"l c #B71C1C",
"z c #E1E3E3",
"x c #063A30",
"c c #3D645C",
"v c #8C8C8C",
"b c #B51313",
"n c #587973",
"m c #CFD5D4",
"M c #7A7A7A",
"N c #DEBBBB",
"B c #D38C8C",
"V c #5E5E5E",
"C c #DCB2B2",
"Z c #98AAA7",
"A c #748F8A",
"S c #738F89",
"D c #345D55",
"F c #BE3838",
"G c #383838",
"H c #4F726C",
"J c #E1E1E1",
"K c #C5CECC",
"L c #D7D7D7",
"P c #C75E5E",
"I c #BC2F2F",
"U c #224F46",
"Y c #C5C5C5",
"T c #3D645D",
"R c #B3C0BD",
"E c #BBBBBB",
"W c #BA2626",
"Q c #E5D7D7",
"! c None",
/* pixels */
"99999QQ999999999JEL9",
"QBBBB*B9u799999X=Gv9",
"QBBllB49#eR9999qXvv9",
"99:>>IO9zSf9hD+iY,L9",
"99PpNtB99+s##y9iwEL9",
"94F2bFB999y#AThMVVd9",
"oF*BbFB999y#xxf99999",
"rNQ92kQ999y.#Sf99999",
"9OIIIII&99yx0$99z##z",
"9hff997f99yx%999Axcm",
"9hf3%ReA99yx999%xxcm",
"999K0USz99 #99$0###z",
"9999xy99Nt2p99y5K999",
"9999gy9O28PbOhTg%999",
"9999#y9It8COIf;u9999",
"9999#y9IrtB9>6u99999",
"z#u9h$PWat2pNP999999",
"mc;u99PNk222NP999999",
"9hfj99PNN2*lk8C99999",
"999Dn+-WWkQI22Bnn999",
"9999xs+9WkNN>:y.9999",
"9hfugTh9<1@P:9Zm9999",
"9hT#u;cmf;cyyyR99999",
"99 g9uH#9u####u99999",
"9999g yx##Hx##u99999",
"9999#TTxyyyygxf99999",
"9999ufff9999u;f99999",
"9999999999999uu99999"
};
