/* XPM */
static char *[] = {
/* width height ncolors chars_per_pixel */
"20 28 48 1",
/* colors */
"  c #000000",
". c #9F9F9F",
"X c #E3CECE",
"o c #D89F9F",
"O c #C55454",
"+ c #CE7A7A",
"@ c #B20909",
"# c #B00000",
"$ c #E1C4C4",
"% c #4B4B4B",
"& c #B92626",
"* c #EAEAEA",
"= c #2F2F2F",
"- c #252525",
"; c #D79F9F",
": c #E8E1E1",
"> c #CC7070",
", c #CECECE",
"< c #131313",
"1 c #C4C4C4",
"2 c #090909",
"3 c #D59696",
"4 c #B92525",
"5 c #B2B2B2",
"6 c #C24B4B",
"7 c #B71C1C",
"8 c #969696",
"9 c #8C8C8C",
"0 c #B51313",
"q c #E0C4C4",
"w c #7A7A7A",
"e c #DEBBBB",
"r c #D38C8C",
"t c #5E5E5E",
"y c #545454",
"u c #DCB2B2",
"i c #BE3838",
"p c #383838",
"a c #E1E1E1",
"s c #262626",
"d c #D7D7D7",
"f c #C75E5E",
"g c #BC2F2F",
"h c #C5C5C5",
"j c #BBBBBB",
"k c #BA2626",
"l c #E5D7D7",
"z c None",
/* pixels */
"********************",
"********************",
"***********ww*******",
"********h==22=.*****",
"****aj%s=w**h=.*****",
"****,tt,**59.*******",
"********tts <8******",
"******w=-jjj-,******",
"******wh****jjd*****",
"*******.9999  y9****",
"***wttt<999999p w***",
"***1 %jj******,-=***",
"**********X:********",
"*********$i>o*******",
"******3XX>r7g*******",
"******fk:X+@q*******",
"*****le4300kg+******",
"*****uff6ii>o*******",
"*****uu+6#Or03******",
"*****r7;3#7g#f******",
"******f3g7>4@+******",
"******f#rOif7rrl****",
"***++*u7>#if7ri6+***",
"***q@gg@k##3;+X4@+**",
"*o0k#6eee>>4k#r*##r*",
"**3X0f&#ffffe#r*##r*",
"****o*ur***+6#r+#i$*",
"***********q3#7@4X**"
};
