/* XPM */
static char *[] = {
/* width height ncolors chars_per_pixel */
"20 28 44 1",
/* colors */
"  c #C5CAD5",
". c #C4CAD4",
"X c #6779A0",
"o c #2F4880",
"O c #D08383",
"+ c #96A2BA",
"@ c #5E719A",
"# c #26407A",
"$ c #D7DADF",
"% c #385185",
"& c #CE7A7A",
"* c #B20909",
"= c #C34B4B",
"- c #EAEAEA",
"; c #133070",
": c #C4CAD5",
"> c #8C99B5",
", c #D79F9F",
"< c #CC7070",
"1 c #546895",
"2 c #BBC2CF",
"3 c #8391AF",
"4 c #26407B",
"5 c #25407A",
"6 c #B71C1C",
"7 c #9FA9C0",
"8 c #CED2DA",
"9 c #96A1BA",
"0 c #7081A5",
"q c #385085",
"w c #D38C8C",
"e c #9FAABF",
"r c #67799F",
"t c #D18383",
"y c #09286A",
"u c #8391B0",
"i c #4B6090",
"p c #B2BACA",
"a c #7A89AA",
"s c #BC2F2F",
"d c #546995",
"f c #1C3875",
"g c #4B618F",
"h c None",
/* pixels */
"--8222$-------------",
"-:qg@%d$------------",
"8%dr@0qg------------",
"4gXe53351-----------",
"o>0ieXg2o-----------",
"o>%ura#2o-----------",
";00uraaro-----------",
"+;3iyXXy.-----------",
"-7;+20f ------------",
"--9@@@p-wwww--------",
"-------&6ww6&-------",
"------&*,ss,*&------",
"-----w6,=OO=,6w-----",
"-----wwst<<tsww-----",
"-----wwst<<tsww-----",
"-----w6,=OO=,6w-----",
"------&*,ss,*&------",
"-------&6ww6&-------",
"--------wwww-p@@@9--",
"------------ f02+;7-",
"-----------.yXXyi3;+",
"-----------oraaru00;",
"-----------o2#aru%>o",
"-----------o2gXei0>o",
"-----------15335eXg4",
"------------gq0@rd%8",
"------------$d%@gq:-",
"-------------$2228--"
};
