/* XPM */
static char *[] = {
/* width height ncolors chars_per_pixel */
"20 28 74 1",
/* colors */
"  c #CED5D4",
". c #5E1C17",
"X c #2B564E",
"o c #E3CECE",
"O c #D89F9F",
"+ c #A1B2AE",
"@ c #BCC7C5",
"# c #7D9591",
"$ c #7C9590",
"% c #2A372F",
"& c #E1C5C5",
"* c #C55454",
"= c #587A73",
"- c #CE7A7A",
"; c #B20909",
": c #B00000",
"> c #214F46",
", c #E1C4C4",
"< c #98ABA7",
"1 c #B3C0BE",
"2 c #B92626",
"3 c #EAEAEA",
"4 c #0F4137",
"5 c #2F2F2F",
"6 c #869D98",
"7 c #2A564E",
"8 c #E8E1E1",
"9 c #A1B2AF",
"0 c #CC7070",
"q c #61807A",
"w c #CECECE",
"e c #D8DCDB",
"r c #C4C4C4",
"t c #C3C4C3",
"y c #971311",
"u c #090909",
"i c #B92525",
"p c #18483F",
"a c #B2B2B2",
"s c #8FA4A0",
"d c #4F726B",
"f c #C24B4B",
"g c #B71C1C",
"h c #063A30",
"j c #7D9691",
"k c #3D645C",
"l c #8C8C8C",
"z c #B51313",
"x c #587973",
"c c #814D49",
"v c #CFD5D4",
"b c #7A7A7A",
"n c #DEBBBB",
"m c #D38C8C",
"M c #5E5E5E",
"N c #545454",
"B c #98AAA7",
"V c #738F89",
"C c #345D55",
"Z c #BE3838",
"A c #4F726C",
"S c #E1E1E1",
"D c #D7D7D7",
"F c #A58785",
"G c #C75E5E",
"H c #5C6E68",
"J c #BC2F2F",
"K c #224F46",
"L c #C5C5C5",
"P c #B3C0BD",
"I c #BBBBBB",
"U c #BA2626",
"Y c #E5D7D7",
"T c None",
/* pixels */
"33333333333333333333",
"Ymmm3333333333333rlD",
"nZmg-333333333333rlD",
"8o-;J3333333333N5555",
"33-JJ333@A@73333r333",
"3,,OJ333vkhd33aD53aD",
"3,0zOPqq$s=e33aD53aD",
"33on3shhCss333b5u55L",
"333333#4hp+33DIS5333",
"331s933$hq333aMwb333",
"33qhpB33>13333333333",
"33 @<q3*yJJ&33333333",
"3333t.::JOz::G333333",
"3333n:ZzJ3G:fZ,99333",
"3333f:ZzzG20n:c69333",
"CC+3:::::::UUfHXx333",
"hp+3infU:::UUfY33333",
"qB33:::0:::0oZm33333",
"3333:Zmg::::GZm33333",
"3333io3J:::::fY3C#33",
"3333U:::3mg&33 7C#33",
"e133oG2:m*m333qd3333",
"d7qqqqFg:Z,33Pje3333",
"hhV@@VK%no333ss33333",
"3333@VKCXhV@@Vhhhhs3",
"3333qqP3vqqqqqqqqqP3",
"33333333333333333333",
"33333333333333333333"
};
