/* XPM */
static char *[] = {
/* width height ncolors chars_per_pixel */
"20 28 78 1",
/* colors */
"  c #CED5D4",
". c #2B564E",
"X c #E3CECE",
"o c #D89F9F",
"O c #A1B2AE",
"+ c #BCC7C5",
"@ c #7D9591",
"# c #7C9590",
"$ c #E1C5C5",
"% c #C55454",
"& c #587A73",
"* c #CE7A7A",
"= c #B20909",
"- c #C34B4B",
"; c #676767",
": c #B00000",
"> c #214F46",
", c #E1C4C4",
"< c #98ABA7",
"1 c #B3C0BE",
"2 c #B92626",
"3 c #EAEAEA",
"4 c #0F4137",
"5 c #2F2F2F",
"6 c #869D98",
"7 c #2A564E",
"8 c #D79F9F",
"9 c #E8E1E1",
"0 c #A1B2AF",
"q c #CC7070",
"w c #61807A",
"e c #CECECE",
"r c #D8DCDB",
"t c #131313",
"y c #C4C4C4",
"u c #D59696",
"i c #B92525",
"p c #18483F",
"a c #8FA4A0",
"s c #4F726B",
"d c #C6CECC",
"f c #C24B4B",
"g c #B71C1C",
"h c #E1E3E3",
"j c #063A30",
"k c #8C8C8C",
"l c #3D645C",
"z c #B51313",
"x c #E0C4C4",
"c c #4A231D",
"v c #587973",
"b c #CFD5D4",
"n c #DEBBBB",
"m c #D38C8C",
"M c #5E5E5E",
"N c #545454",
"B c #DCB2B2",
"V c #98AAA7",
"C c #748F8A",
"Z c #738F89",
"A c #345D55",
"S c #C96767",
"D c #BE3838",
"F c #383838",
"G c #4F726C",
"H c #E1E1E1",
"J c #C5CECC",
"K c #262626",
"L c #D7D7D7",
"P c #C75E5E",
"I c #BC2F2F",
"U c #224F46",
"Y c #C5C5C5",
"T c #3D645D",
"R c #B3C0BD",
"E c #BBBBBB",
"W c #E5D7D7",
"Q c None",
/* pixels */
"33X933X93333h 33HEEH",
"33Pq33Pn3333+Td3eMKE",
"33P:*3PfPu33r&lb33ME",
"$Izu8IzunX33AUj.Y5tE",
"33P:xWfu33337 w+HEL5",
"WmDfS*Pzo333sTT+eFN;",
"WmDfSB3ozu33+jj+3ykL",
"33P:x333uzo3hZj+3333",
"33*$333333333aj+3333",
"raaa0333raaaa&jC3333",
"sj&aA333r&&ajTa>3333",
"<jUAA3333aUdjw3A3333",
"33339nn-iX@A4AA43333",
"3333q2PXfD,3#da>0333",
"3333gB33W%m3bl&aA333",
"333%=II$3mg$+jUAA333",
"33P:n:gII3*=33@A3333",
"33P:q:%WSB3I33333333",
"33PqgmDfnP3I33333333",
"33Pn=*P:nP3I3333AAO3",
"33*=::g=::gIh  ssZa3",
"333*::%g:2B3CTT+C7R3",
"wwwwccccmB33Cjjs>133",
"7+Gj<jjjAAAA.jjjJ333",
"+6Ad+w 7v333dApj7+r3",
"wV33+TTs333333Vwjj&a",
"3333r&&r33333333aaa>",
"33333rr333333333333J"
};
