/* XPM */
static char *[] = {
/* width height ncolors chars_per_pixel */
"20 28 23 1",
/* colors */
"  c #CED5D4",
". c #2B564E",
"X c #BCC7C5",
"o c #587A73",
"O c #214F46",
"+ c #98ABA7",
"@ c #B3C0BE",
"# c #EAEAEA",
"$ c #2A564E",
"% c #61807A",
"& c #D8DCDB",
"* c #4F726B",
"= c #C6CECC",
"- c #E1E3E3",
"; c #063A30",
": c #3D645C",
"> c #CFD5D4",
", c #738F89",
"< c #345D55",
"1 c #4F726C",
"2 c #3D645D",
"3 c #B3C0BD",
"4 c None",
/* pixels */
"#&1;.;,-####-,;.;1&#",
"#3$;X;:>####>:;X;$3#",
"##@OX2=######=2XO@##",
"###<X%########%X<###",
"## $+1&######&1+$ ##",
"#=2;*;o&####&o;*;2=#",
"#=2;*;o&####&o;*;2=#",
"## $+1&######&1+$ ##",
"###<X%########%X<###",
"##@OX2=######=2XO@##",
"#3$;X;:>####>:;X;$3#",
"#&1;.;,-####-,;.;1&#",
"####################",
"####################",
"####################",
"####################",
"#&1;.;,-####-,;.;1&#",
"#3$;X;:>####>:;X;$3#",
"##@OX2=######=2XO@##",
"###<X%########%X<###",
"## $+1&######&1+$ ##",
"#=2;*;o&####&o;*;2=#",
"#=2;*;o&####&o;*;2=#",
"## $+1&######&1+$ ##",
"###<X%########%X<###",
"##@OX2=######=2XO@##",
"#3$;X;:>####>:;X;$3#",
"#&1;.;,-####-,;.;1&#"
};
