/* XPM */
static char *[] = {
/* width height ncolors chars_per_pixel */
"20 28 46 1",
/* colors */
"  c #000000",
". c #9F9F9F",
"X c #E3CECE",
"o c #D89F9F",
"O c #C55454",
"+ c #CE7A7A",
"@ c #B20909",
"# c #B00000",
"$ c #E1C4C4",
"% c #4B4B4B",
"& c #B92626",
"* c #EAEAEA",
"= c #2F2F2F",
"- c #252525",
"; c #D79F9F",
": c #E8E1E1",
"> c #CC7070",
", c #CECECE",
"< c #131313",
"1 c #C4C4C4",
"2 c #090909",
"3 c #D59696",
"4 c #B92525",
"5 c #B2B2B2",
"6 c #C24B4B",
"7 c #B71C1C",
"8 c #969696",
"9 c #B51313",
"0 c #E0C4C4",
"q c #7A7A7A",
"w c #707070",
"e c #DEBBBB",
"r c #D38C8C",
"t c #5E5E5E",
"y c #DCB2B2",
"u c #BE3838",
"i c #383838",
"p c #262626",
"a c #C75E5E",
"s c #BC2F2F",
"d c #1C1C1C",
"f c #C5C5C5",
"g c #BBBBBB",
"h c #BA2626",
"j c #E5D7D7",
"k c None",
/* pixels */
"********************",
"********************",
"********************",
"********f=======****",
"**,-gw  =q*=-,q2-,**",
"**t <tp .**= t*= t**",
"**t =*5d<8*=d58< t**",
"**,-=**1 tq21*t -,**",
"****p%g-=====d p****",
"****,iit*****5t,****",
"*****11*************",
"********************",
"**********X:********",
"*********$u>o*******",
"******3XX>r7s*******",
"******ah:X+@0*******",
"*****je4399hs+******",
"*****yaa6uu>o*******",
"*****yy+6#Or93******",
"*****r7;3#7s#a******",
"******a3s7>4@+******",
"******a#rOua7rrj****",
"***++*y7>#ua7ru6+***",
"***0@ss@h##3;+X4@+**",
"*o9h#6eee>>4h#r*##r*",
"**3X9a&#aaaae#r*##r*",
"****o*yr***+6#r+#u$*",
"***********03#7@4X**"
};
