/* XPM */
static char *[] = {
/* width height ncolors chars_per_pixel */
"20 28 66 1",
/* colors */
"  c #000000",
". c #CED5D4",
"X c #2B564E",
"o c #E3CECE",
"O c #A1B2AE",
"+ c #BCC7C5",
"@ c #676C6B",
"# c #7D9591",
"$ c #E1C5C5",
"% c #587A73",
"& c #676767",
"* c #B00000",
"= c #214F46",
"- c #E1C4C4",
"; c #98ABA7",
": c #4B4B4B",
"> c #B3C0BE",
", c #738E89",
"< c #EAEAEA",
"1 c #0F4137",
"2 c #2F2F2F",
"3 c #869D98",
"4 c #2A564E",
"5 c #E8E1E1",
"6 c #A1B2AF",
"7 c #61807A",
"8 c #CECECE",
"9 c #D8DCDB",
"0 c #090909",
"q c #D59696",
"w c #18483F",
"e c #B2B2B2",
"r c #8FA4A0",
"t c #4F726B",
"y c #C6CECC",
"u c #6A8782",
"i c #C24B4B",
"p c #E1E3E3",
"a c #063A30",
"s c #7D9691",
"d c #3D645C",
"f c #8C8C8C",
"g c #B51313",
"h c #587973",
"j c #CFD5D4",
"k c #7A7A7A",
"l c #DEBBBB",
"z c #5E5E5E",
"x c #98AAA7",
"c c #748F8A",
"v c #738F89",
"b c #345D55",
"n c #BE3838",
"m c #383838",
"M c #4F726C",
"N c #C5CECC",
"B c #D7D7D7",
"V c #BC2F2F",
"C c #224F46",
"Z c #1C1C1C",
"A c #C5C5C5",
"S c #3D645D",
"D c #B3C0BD",
"F c #BBBBBB",
"G c #BA2626",
"H c None",
/* pixels */
"<<o5<<<<<<<<<<<<<<<<",
"<-nl<<<<<<<<<<<<<<<<",
"on*l<<<<<DD<<eekk<<<",
"liil<<<<yu9<2ZZ00k<<",
"$VgG<<<<b<<<<f F2<<<",
"<<qo<<<<b<<<<fm8&e<<",
"<<<<<<<<b<<<8mf<Fz<<",
"<<<<<<<<1#<<F:B<Fz<<",
"<<<<<<<<a7<<A@9<2k<<",
"<<<66<<<aSy<<rr<<<<<",
"<<xwbDD<car<jdr<<<<<",
"<<7;N9uypvr<p+9<<OO<",
"<Obb<<<hNOw+p+++awby",
"<<<<<<<<byScc44ttSy<",
"<<<<j777w,Sac7>u9%dj",
"<<<hXMMa4..4+wONyuM+",
"<9Ma+aaX4++4h9++yuM+",
"9s7w+adja47wr%dw6D4+",
"+7<6+Sy<=><b=ry6374+",
"+7#y+wO<1bb1b<<<pva+",
"yCa;+ar<+wOhb<<N<OO<",
"<rd7jdr<+7<<=>>=<<<<",
"<yy<7dr<+477a44cj7D<",
"<<<<+vCy+av+;avpt+9<",
"<<<<<<7;+M++;avt<9uy",
"<<<<6<xwc477777j9sD<",
"<<<<6<<6=><<<<<<9><<",
"<<<<<<<<N<<<<<<<<<<<"
};
