/* XPM */
static char *[] = {
/* width height ncolors chars_per_pixel */
"20 28 75 1",
/* colors */
"  c #000000",
". c #CED5D4",
"X c #2B564E",
"o c #E3CECE",
"O c #D89F9F",
"+ c #A1B2AE",
"@ c #BCC7C5",
"# c #7D9591",
"$ c #7C9590",
"% c #C55454",
"& c #587A73",
"* c #CE7A7A",
"= c #B20909",
"- c #C34B4B",
"; c #B00000",
": c #214F46",
"> c #E1C4C4",
", c #4B4B4B",
"< c #B3C0BE",
"1 c #B92626",
"2 c #EAEAEA",
"3 c #A92120",
"4 c #0F4137",
"5 c #2A564E",
"6 c #E8E1E1",
"7 c #A1B2AF",
"8 c #CC7070",
"9 c #61807A",
"0 c #3C2821",
"q c #D8DCDB",
"w c #B92525",
"e c #CA6767",
"r c #18483F",
"t c #B2B2B2",
"y c #8FA4A0",
"u c #4F726B",
"i c #C6CECC",
"p c #C24B4B",
"a c #B71C1C",
"s c #E1E3E3",
"d c #063A30",
"f c #7D9691",
"g c #3D645C",
"h c #8C8C8C",
"j c #B51313",
"k c #E0C4C4",
"l c #587973",
"z c #CFD5D4",
"x c #707070",
"c c #DEBBBB",
"v c #D38C8C",
"b c #5E5E5E",
"n c #545454",
"m c #DCB2B2",
"M c #98AAA7",
"N c #AA7C7A",
"B c #748F8A",
"V c #738F89",
"C c #345D55",
"Z c #BE3838",
"A c #D7BDBD",
"S c #4F726C",
"D c #C5CECC",
"F c #262626",
"G c #D7D7D7",
"H c #C75E5E",
"J c #BC2F2F",
"K c #224F46",
"L c #A05755",
"P c #3D645D",
"I c #B3C0BD",
"U c #BBBBBB",
"Y c #BA2626",
"T c #E5D7D7",
"R c None",
/* pixels */
"22226cc6222222222GG2",
"22mv8;;c2ii22222Gnh2",
"22maa%%T2yy22222U h2",
"222k=av22yKi2222,xh2",
"2Tc-Ja862yd@2222   F",
"T%Zo2m18qf5@2222bbFU",
"cZ>2HH*vL55@222222tG",
"6o22ccT2AVd@222lCC+2",
"222%JJO2sVV@DqSX2+r@",
"22222222@ddu$ydByyP@",
"2222z99zuPyq2ydByyyq",
"2222XSSX5.22iKdX2222",
"22224Crdl222@r+Cl222",
"2222$29uvvvvNPy:2222",
"222222<qavvv3yyy2222",
"22222OJJJ22%=JO22222",
"2222c;v%;;8wJJjc2222",
"2222oZv2jH1;22Hc2222",
"22222vZHJm1;22Hc2222",
"22222Tcw=ep;2Ojc2222",
"2q@@dSqJ22HYJJODD222",
"2yg99g&3vvZcqyy::<22",
"2yg92iP0vvvT@PyyB5I2",
"2q@5CCrdiCCiX922sVKi",
"222222#44#9d4CC4@@S@",
"2222222CC2Mr$22$999z",
"22222227722722222222",
"22222222222222222222"
};
