/* XPM */
static char *[] = {
/* width height ncolors chars_per_pixel */
"20 28 34 1",
/* colors */
"  c #CED5D4",
". c #D89F9F",
"X c #587A73",
"o c #CE7A7A",
"O c #B00000",
"+ c #214F46",
"@ c #98ABA7",
"# c #B3C0BE",
"$ c #B92626",
"% c #EAEAEA",
"& c #0F4137",
"* c #2A564E",
"= c #A1B2AF",
"- c #CC7070",
"; c #D8DCDB",
": c #D59696",
"> c #18483F",
", c #8FA4A0",
"< c #4F726B",
"1 c #C24B4B",
"2 c #E1E3E3",
"3 c #063A30",
"4 c #3D645C",
"5 c #B51313",
"6 c #E0C4C4",
"7 c #DEBBBB",
"8 c #98AAA7",
"9 c #748F8A",
"0 c #738F89",
"q c #345D55",
"w c #C5CECC",
"e c #C75E5E",
"r c #224F46",
"t c None",
/* pixels */
"@3r&* %%%%%%%% *&r3@",
"<3,q>8%%%%%%%%8>q,3<",
";X,q=%%%%%%%%%%=q,X;",
"%,,q%%%%%%%%%%%%q,,%",
"200*w%%%%%%%%%%w*002",
"934>+#%%%%%%%%#+>439",
"934>+#%%%%%%%%#+>439",
"200*w%%%%%%%%%%w*002",
"%,,q%%%6O55O6%%%q,,%",
";X,q=%%oOeeOo%%=q,X;",
"<3,q>8%%-ee-%%8>q,3<",
"@3r&* %%7ee7%% *&r3@",
"%%%%%%%%:11:%%%%%%%%",
"%%%%%%%.O$$O.%%%%%%%",
"%%%%%%%.O$$O.%%%%%%%",
"%%%%%%%%:11:%%%%%%%%",
"@3r&* %%7ee7%% *&r3@",
"<3,q>8%%-ee-%%8>q,3<",
";X,q=%%oOeeOo%%=q,X;",
"%,,q%%%6O55O6%%%q,,%",
"200*w%%%%%%%%%%w*002",
"934>+#%%%%%%%%#+>439",
"934>+#%%%%%%%%#+>439",
"200*w%%%%%%%%%%w*002",
"%,,q%%%%%%%%%%%%q,,%",
";X,q=%%%%%%%%%%=q,X;",
"<3,q>8%%%%%%%%8>q,3<",
"@3r&* %%%%%%%% *&r3@"
};
