/* XPM */
static char *[] = {
/* width height ncolors chars_per_pixel */
"20 28 51 1",
/* colors */
"  c #000000",
". c #9F9F9F",
"X c #E3CECE",
"o c #D89F9F",
"O c #C55454",
"+ c #838383",
"@ c #CE7A7A",
"# c #B20909",
"$ c #676767",
"% c #B00000",
"& c #E1C4C4",
"* c #4B4B4B",
"= c #B92626",
"- c #EAEAEA",
"; c #2F2F2F",
": c #D79F9F",
"> c #E8E1E1",
", c #CC7070",
"< c #CECECE",
"1 c #131313",
"2 c #C4C4C4",
"3 c #090909",
"4 c #D59696",
"5 c #B92525",
"6 c #B2B2B2",
"7 c #C24B4B",
"8 c #B71C1C",
"9 c #969696",
"0 c #8C8C8C",
"q c #B51313",
"w c #E0C4C4",
"e c #7A7A7A",
"r c #707070",
"t c #DEBBBB",
"y c #D38C8C",
"u c #5E5E5E",
"i c #545454",
"p c #DCB2B2",
"a c #BE3838",
"s c #383838",
"d c #E1E1E1",
"f c #262626",
"g c #D7D7D7",
"h c #C75E5E",
"j c #BC2F2F",
"k c #1C1C1C",
"l c #C5C5C5",
"z c #BBBBBB",
"x c #BA2626",
"c c #E5D7D7",
"v c None",
/* pixels */
"--------------------",
"------------.-------",
"-----------e1u6-----",
"----l;.--.;3  kl----",
"----dr z;;1 --------",
"----z  z-2s*06------",
"----z ig-0 * f6-----",
"----f 0i;k    kl----",
"---23k0-f1.23$zz----",
"---;e00-rs0kki  06--",
"--9+<ssu s00000k f6-",
"-.+dz rzz<-----2  0-",
"-----..---X>----le--",
"---------&a,o-------",
"------4XX,y8j-------",
"------hx>X@#w-------",
"-----ct54qqxj@------",
"-----phh7aa,o-------",
"-----pp@7%Oyq4------",
"-----y8:4%8j%h------",
"------h4j8,5#@------",
"------h%yOah8yyc----",
"---@@-p8,%ah8ya7@---",
"---w#jj#x%%4:@X5#@--",
"-oqx%7ttt,,5x%y-%%y-",
"--4Xqh=%hhhht%y-%%y-",
"----o-py---@7%y@%a&-",
"-----------w4%8#5X--"
};
