/* XPM */
static char *[] = {
/* width height ncolors chars_per_pixel */
"20 28 44 1",
/* colors */
"  c #C5CAD5",
". c #C4CAD4",
"X c #6779A0",
"o c #2F4880",
"O c #D08383",
"+ c #96A2BA",
"@ c #5E719A",
"# c #26407A",
"$ c #D7DADF",
"% c #385185",
"& c #CE7A7A",
"* c #B20909",
"= c #C34B4B",
"- c #EAEAEA",
"; c #B2B9CA",
": c #133070",
"> c #C4CAD5",
", c #8C99B5",
"< c #D79F9F",
"1 c #CC7070",
"2 c #546895",
"3 c #BBC2CF",
"4 c #8391AF",
"5 c #26407B",
"6 c #25407A",
"7 c #B71C1C",
"8 c #9FA9C0",
"9 c #CED2DA",
"0 c #96A1BA",
"q c #7081A5",
"w c #385085",
"e c #D38C8C",
"r c #9FAABF",
"t c #67799F",
"y c #D18383",
"u c #09286A",
"i c #8391B0",
"p c #4B6090",
"a c #7A89AA",
"s c #BC2F2F",
"d c #546995",
"f c #1C3875",
"g c #4B618F",
"h c None",
/* pixels */
"--96oo:+----+:oo69--",
"->wg,,q:8--8:q,,gw>-",
"9%dtqwqi:00:iqwqtd%9",
"3gXrp44p+@@+p44prXg3",
"3@@5rXXu3@@3uXXr5@@3",
"3wqitaatq@@qtaatiqw3",
"$d%ig#atf;;fta#gi%d$",
"-$g533Xu.--.uX335g$-",
"---2ooo ---- ooo2---",
"--------eeee--------",
"-------&7ee7&-------",
"------&*<ss<*&------",
"-----e7<=OO=<7e-----",
"-----eesy11ysee-----",
"-----eesy11ysee-----",
"-----e7<=OO=<7e-----",
"------&*<ss<*&------",
"-------&7ee7&-------",
"--------eeee--------",
"---2ooo ---- ooo2---",
"-$g533Xu.--.uX335g$-",
"$d%ig#atf;;fta#gi%d$",
"3wqitaatq@@qtaatiqw3",
"3@@5rXXu3@@3uXXr5@@3",
"3gXrp44p+@@+p44prXg3",
"9%dtqwqi:00:iqwqtd%9",
"->wg,,q:8--8:q,,gw>-",
"--96oo:+----+:oo69--"
};
