/* XPM */
static char *[] = {
/* width height ncolors chars_per_pixel */
"20 28 27 1",
/* colors */
"  c #CED5D4",
". c #BCC7C5",
"X c #7C9590",
"o c #587A73",
"O c #214F46",
"+ c #98ABA7",
"@ c #B3C0BE",
"# c #EAEAEA",
"$ c #0F4137",
"% c #2A564E",
"& c #A1B2AF",
"* c #61807A",
"= c #D8DCDB",
"- c #18483F",
"; c #8FA4A0",
": c #4F726B",
"> c #E1E3E3",
", c #063A30",
"< c #3D645C",
"1 c #98AAA7",
"2 c #748F8A",
"3 c #738F89",
"4 c #345D55",
"5 c #4F726C",
"6 c #C5CECC",
"7 c #224F46",
"8 c None",
/* pixels */
"+,7$% #6,--,6# %$7,+",
":,;4-1#X,**,X#1-4;,:",
"=o;4&###2**2###&4;o=",
"#;;4####.**.####4;;#",
">33%6###+55+###6%33>",
"2,<-4##&,%%,&#@O-<,2",
"2,<-4##&,%%,&#@O-<,2",
">33%6###+55+###6%33>",
"#;;4####.**.####4;;#",
"=o;4&###2**2###&4;o=",
":,;4-1#X,**,X#1-4;,:",
"+,7$% #6,--,6# %$7,+",
"####################",
"####################",
"####################",
"####################",
"+,7$% #6,--,6# %$7,+",
":,;4-1#X,**,X#1-4;,:",
"=o;4&###2**2###&4;o=",
"#;;4####.**.####4;;#",
">33%6###+55+###6%33>",
"2,<-4##&,%%,&#@O-<,2",
"2,<-4##&,%%,&#@O-<,2",
">33%6###+55+###6%33>",
"#;;4####.**.####4;;#",
"=o;4&###2**2###&4;o=",
":,;4-1#X,**,X#1-4;,:",
"+,7$% #6,--,6# %$7,+"
};
