/* XPM */
static char *[] = {
/* width height ncolors chars_per_pixel */
"20 28 77 1",
/* colors */
"  c #5F729C",
". c #EFDADA",
"X c #E6ADAD",
"o c #C5CAD5",
"O c #C4CAD4",
"+ c #C95252",
"@ c #E5D0D0",
"# c #C95F5F",
"$ c #5C709C",
"% c #DADDE6",
"& c #DC8F8F",
"* c #A3AEC7",
"= c #D0D3DC",
"- c #2F4880",
"; c #9BA6BF",
": c #B61414",
"> c #E1C5C5",
", c #96A2BA",
"< c #C55454",
"1 c #EFCCCC",
"2 c #5E719A",
"3 c #ABB5CB",
"4 c #3D558A",
"5 c #D7DADF",
"6 c #BEC5D3",
"7 c #0A296B",
"8 c #526797",
"9 c #C33D3D",
"0 c #ECECEC",
"q c #EAEAEA",
"w c #8594B5",
"e c #B2B9CA",
"r c #143271",
"t c #E3ABAB",
"y c #D67A7A",
"u c #CCD2E0",
"i c #546895",
"p c #8F9DBB",
"a c #BBC2CF",
"s c #CC5C5C",
"d c #BD2929",
"f c #526896",
"g c #D59696",
"h c #CC6969",
"j c #99A6C1",
"k c #DF9999",
"l c #ADB7CE",
"z c #29447E",
"x c #C24B4B",
"c c #B71C1C",
"v c #7082A9",
"b c #697CA2",
"n c #334D84",
"m c #EACECE",
"M c #E0C4C4",
"N c #7A8BAF",
"B c #D98585",
"V c #3D568A",
"C c #CA5252",
"Z c #B30A0A",
"A c #DEBBBB",
"S c #DCB2B2",
"D c #EFEFEF",
"F c #EDEDED",
"G c #E2BEBE",
"H c #C03333",
"J c #C75E5E",
"K c #BC2F2F",
"L c #546995",
"P c #E2A3A3",
"I c #1C3875",
"U c #D37070",
"Y c #DA9B9B",
"T c #E5D7D7",
"R c #CED4DE",
"E c #4B618F",
"W c None",
/* pixels */
"q0%znnr*FqqF*rnnz%0q",
"0RV8jjNr3DD3rNjj8VR0",
"=4$vNVNpr;;rpNVNv$4=",
"aEblfppf,22,fppflbEa",
"a  zlvv762267vvlz  a",
"aVNpvwwvN22NvwwvpNVa",
"5L4p8zwvIeeIvwz8p4L5",
"q5Ezuuv7OqqO7vuuzE5q",
"qqqi---oqqqqo---iqqq",
"qqqqqqqqqqqqqqqqqqqq",
"qqqqqqqqqqqqqqqqqqqq",
"qqq<KKK>qqqq>KKK<qqq",
"qTxd11UZMqqMZU11dxTq",
"T<9&CdBUcSScUBdC&9<T",
"A9y&UBBUyJJyUBBU&y9A",
"A##dXUUZGJJGZUUXd##A",
"AxhX+&&+gJJg+&&+XhxA",
"@9sUy9y&:YY:&y9yUs9@",
"0m9Ckky:tDDt:ykkC9m0",
"q0.dHH:PFqqFP:HHd.0q",
"qTxd11UZMqqMZU11dxTq",
"T<9&CdBUcSScUBdC&9<T",
"A9y&UBBUyJJyUBBU&y9A",
"A##dXUUZGJJGZUUXd##A",
"AxhX+&&+gJJg+&&+XhxA",
"@9sUy9y&:YY:&y9yUs9@",
"0m9Ckky:tDDt:ykkC9m0",
"q0.dHH:PFqqFP:HHd.0q"
};
