/* XPM */
static char *[] = {
/* width height ncolors chars_per_pixel */
"20 28 43 1",
/* colors */
"  c #CED5D4",
". c #2B564E",
"X c #7D9591",
"o c #7C9590",
"O c #C55454",
"+ c #587A73",
"@ c #CE7A7A",
"# c #B00000",
"$ c #214F46",
"% c #98ABA7",
"& c #B3C0BE",
"* c #B92626",
"= c #EAEAEA",
"- c #0F4137",
"; c #2A564E",
": c #A1B2AF",
"> c #CC7070",
", c #61807A",
"< c #D8DCDB",
"1 c #18483F",
"2 c #8FA4A0",
"3 c #4F726B",
"4 c #C6CECC",
"5 c #C24B4B",
"6 c #E1E3E3",
"7 c #063A30",
"8 c #3D645C",
"9 c #B51313",
"0 c #E0C4C4",
"q c #587973",
"w c #CFD5D4",
"e c #98AAA7",
"r c #748F8A",
"t c #738F89",
"y c #345D55",
"u c #4F726C",
"i c #C5CECC",
"p c #C75E5E",
"a c #BC2F2F",
"s c #224F46",
"d c #3D645D",
"f c #BA2626",
"g c None",
/* pixels */
"=======0#99#0=======",
"=======@#pp#@=======",
"========>pp>========",
"========f99f========",
"=======O#55#O=======",
"========5**5========",
"========5pp5========",
"=======O#pp#O=======",
"========aaaa========",
"<222:===2222===:222<",
"37+$1e=o7dd7o=e1$+73",
"%72y; =i7,,7i= ;y27%",
"6tt;i===%uu%===i;tt6",
"r781$&=:7;;7:=&$187r",
"r781$&=:7;;7:=&$187r",
"6tt;i===%uu%===i;tt6",
"%72y; =i7,,7i= ;y27%",
"37+$1e=o7dd7o=e1$+73",
"<222:===2222===:222<",
"4yyyq===yyyy===qyyy4",
".72y-X=q7,,7q=X-y27.",
"w82yo===3,,3===oy28w",
"w881o===3;;3===o188w",
".7t;-X=q7uu7q=X-;t7.",
"4ss-q===.11.===q-ss4",
"<+2y:===r,,r===:y2+<",
"372y1e=o7,,7o=e1y273",
"%7s-; =i7117i= ;-s7%"
};
