/* XPM */
static char *[] = {
/* width height ncolors chars_per_pixel */
"20 28 50 1",
/* colors */
"  c #000000",
". c #9F9F9F",
"X c #E3CECE",
"o c #D89F9F",
"O c #C55454",
"+ c #838383",
"@ c #CE7A7A",
"# c #B20909",
"$ c #B00000",
"% c #E1C4C4",
"& c #4B4B4B",
"* c #B92626",
"= c #EAEAEA",
"- c #2F2F2F",
"; c #D79F9F",
": c #E8E1E1",
"> c #CC7070",
", c #CECECE",
"< c #131313",
"1 c #C4C4C4",
"2 c #090909",
"3 c #D59696",
"4 c #B92525",
"5 c #B2B2B2",
"6 c #C24B4B",
"7 c #B71C1C",
"8 c #969696",
"9 c #8C8C8C",
"0 c #B51313",
"q c #E0C4C4",
"w c #7A7A7A",
"e c #707070",
"r c #DEBBBB",
"t c #D38C8C",
"y c #5E5E5E",
"u c #545454",
"i c #DCB2B2",
"p c #BE3838",
"a c #383838",
"s c #E1E1E1",
"d c #262626",
"f c #D7D7D7",
"g c #C75E5E",
"h c #BC2F2F",
"j c #1C1C1C",
"k c #C5C5C5",
"l c #BBBBBB",
"z c #BA2626",
"x c #E5D7D7",
"c c None",
/* pixels */
"====================",
"====================",
"====================",
"======wk=====.---w==",
"======w2-===8<--u===",
"=======--==.y8======",
"=======.-=8+========",
"========-.+s========",
"=======1 &f=l,======",
"======5j& u9 a1=====",
"====,ydefu    a,====",
"==w-d&ls=f&   es====",
"===uu=====X:========",
"=========%p>o=======",
"======3XX>t7h=======",
"======gz:X@#q=======",
"=====xr4300zh@======",
"=====igg6pp>o=======",
"=====ii@6$Ot03======",
"=====t7;3$7h$g======",
"======g3h7>4#@======",
"======g$tOpg7ttx====",
"===@@=i7>$pg7tp6@===",
"===q#hh#z$$3;@X4#@==",
"=o0z$6rrr>>4z$t=$$t=",
"==3X0g*$ggggr$t=$$t=",
"====o=it===@6$t@$p%=",
"===========q3$7#4X=="
};
