/* XPM */
static char *[] = {
/* width height ncolors chars_per_pixel */
"20 28 50 1",
/* colors */
"  c #C4CAD4",
". c #E3CECE",
"X c #D89F9F",
"o c #6779A0",
"O c #2F4880",
"+ c #D08383",
"@ c #96A2BA",
"# c #C55454",
"$ c #5E719A",
"% c #26407A",
"& c #D7DADF",
"* c #385185",
"= c #CE7A7A",
"- c #C34B4B",
"; c #002065",
": c #EAEAEA",
"> c #133070",
", c #8C99B5",
"< c #D79F9F",
"1 c #CC7070",
"2 c #546895",
"3 c #BBC2CF",
"4 c #8391AF",
"5 c #B92525",
"6 c #CA6767",
"7 c #26407B",
"8 c #C24B4B",
"9 c #B71C1C",
"0 c #CED2DA",
"q c #B51313",
"w c #7081A5",
"e c #385085",
"r c #DEBBBB",
"t c #D38C8C",
"y c #67799F",
"u c #E1E2E5",
"i c #DCB2B2",
"p c #D18383",
"a c #09286A",
"s c #8391B0",
"d c #C96767",
"f c #BE3838",
"g c #4B6090",
"h c #7A89AA",
"j c #C75E5E",
"k c #BC2F2F",
"l c #546995",
"z c #E5D7D7",
"x c #4B618F",
"c c None",
/* pixels */
"u3oOg3&:::::::::::::",
"3%h,s*,:::::::::::::",
"yh%w>ww00$$0::::::::",
"O,wg@$$7g33g2:::::::",
"g4>@aox7@>>@g0: 30::",
"3ew$yl;3>ww>3e,y$w,&",
"&,w$y,e3>ww>3;ly$we3",
"::03 :0g@>>@7xoa@>4g",
":::::::2g33g7$$@gw,O",
"::::::::0$$00ww>w%hy",
":::::::::::::,*s,h%3",
":::::::::::::&3gOo3u",
"::::rrz::::::zrr::::",
"::itjj=t::::t=jjti::",
"::j1jj=9::::9=jj1j::",
":X+-519<#::#<915-+X:",
":ttk<68rk::kr86<ktt:",
":i=d9#fp=::=pf#9d=i:",
"::j8tt1q::::q1tt8j::",
"::.rkk+r::::r+kkr.::",
"::.rkk+r::::r+kkr.::",
"::j8tt1q::::q1tt8j::",
":i=d9#fp=::=pf#9d=i:",
":ttk<68rk::kr86<ktt:",
":X+-519<#::#<915-+X:",
"::j1jj=9::::9=jj1j::",
"::itjj=t::::t=jjti::",
"::::rrz::::::zrr::::"
};
