/* XPM */
static char *[] = {
/* width height ncolors chars_per_pixel */
"20 28 29 1",
/* colors */
"  c #CED5D4",
". c #2B564E",
"X c #587A73",
"o c #214F46",
"O c #98ABA7",
"+ c #B3C0BE",
"@ c #EAEAEA",
"# c #0F4137",
"$ c #2A564E",
"% c #A1B2AF",
"& c #61807A",
"* c #D8DCDB",
"= c #18483F",
"- c #8FA4A0",
"; c #4F726B",
": c #6A8782",
"> c #E1E3E3",
", c #063A30",
"< c #7D9691",
"1 c #3D645C",
"2 c #CFD5D4",
"3 c #98AAA7",
"4 c #748F8A",
"5 c #738F89",
"6 c #345D55",
"7 c #4F726C",
"8 c #C5CECC",
"9 c #224F46",
"0 c None",
/* pixels */
"O,9#$ @@@@@@@@ $#9,O",
";,-6=3@@@@@@@@3=6-,;",
"*X-6%@@@@@@@@@@%6-X*",
"@--6@@@@6666@@@@6--@",
">55$8@@@#:7,@@@8$55>",
"4,1=o++-:X,;-++o=1,4",
"4,1=o<$,:--:,$<o=1,4",
">55$%95$6@@6$59%$55>",
"@--6%9,.@@@@.,9%6--@",
"*X-6:<&2@@@@2&<o6-X*",
";,-6;&@@@@@@@@&,6-,;",
"O,9#$ @@@@@@@@ $#9,O",
"@@@@@@@@@@@@@@@@@@@@",
"@@@@@@@@@@@@@@@@@@@@",
"@@@@@@@@@@@@@@@@@@@@",
"@@@@@@@@@@@@@@@@@@@@",
"O,9#$ @@@@@@@@ $#9,O",
";,-6;&@@@@@@@@&;6-,;",
"*X-6:<&2@@@@2&<:6-X*",
"@--6%9,.@@@@.,9%6--@",
">55$%95$6@@6$59%$55>",
"4,1=o<$,:--:,$<o=1,4",
"4,1=o++-;,X:-++o=1,4",
">55$8@@@,7:#@@@8$55>",
"@--6@@@@6666@@@@6--@",
"*X-6%@@@@@@@@@@%6-X*",
";,-6=3@@@@@@@@3=6-,;",
"O,9#$ @@@@@@@@ $#9,O"
};
