/* XPM */
static char *[] = {
/* width height ncolors chars_per_pixel */
"20 28 47 1",
/* colors */
"  c #000000",
". c #9F9F9F",
"X c #E3CECE",
"o c #D89F9F",
"O c #C55454",
"+ c #838383",
"@ c #CE7A7A",
"# c #B20909",
"$ c #B00000",
"% c #E1C4C4",
"& c #B92626",
"* c #EAEAEA",
"= c #2F2F2F",
"- c #252525",
"; c #D79F9F",
": c #E8E1E1",
"> c #CC7070",
", c #CECECE",
"< c #131313",
"1 c #C4C4C4",
"2 c #090909",
"3 c #D59696",
"4 c #B92525",
"5 c #B2B2B2",
"6 c #C24B4B",
"7 c #B71C1C",
"8 c #8C8C8C",
"9 c #B51313",
"0 c #E0C4C4",
"q c #7A7A7A",
"w c #707070",
"e c #DEBBBB",
"r c #D38C8C",
"t c #5E5E5E",
"y c #545454",
"u c #DCB2B2",
"i c #BE3838",
"p c #E1E1E1",
"a c #262626",
"s c #C75E5E",
"d c #BC2F2F",
"f c #1C1C1C",
"g c #C5C5C5",
"h c #BBBBBB",
"j c #BA2626",
"k c #E5D7D7",
"l c None",
/* pixels */
"********************",
"********************",
"*********55*********",
"********=ffg********",
"*********.+p********",
"*****11***tw********",
"*****1wt**5fq*******",
"*****.< y**12=.*****",
"****pwfgy***gf  -hhp",
"***.+t5******5a  at,",
",tt+.*********5885**",
"phhp****************",
"**********X:********",
"*********%i>o*******",
"******3XX>r7d*******",
"******sj:X@#0*******",
"*****ke4399jd@******",
"*****uss6ii>o*******",
"*****uu@6$Or93******",
"*****r7;3$7d$s******",
"******s3d7>4#@******",
"******s$rOis7rrk****",
"***@@*u7>$is7ri6@***",
"***0#dd#j$$3;@X4#@**",
"*o9j$6eee>>4j$r*$$r*",
"**3X9s&$sssse$r*$$r*",
"****o*ur***@6$r@$i%*",
"***********03$7#4X**"
};
