/* XPM */
static char *[] = {
/* width height ncolors chars_per_pixel */
"20 28 26 1",
/* colors */
"  c #C4CAD4",
". c #6779A0",
"X c #2F4880",
"o c #5E719A",
"O c #26407A",
"+ c #EAEAEA",
"@ c #B2B9CA",
"# c #8C99B5",
"$ c #BBC2CF",
"% c #8391AF",
"& c #26407B",
"* c #25407A",
"= c #9FA9C0",
"- c #96A1BA",
"; c #7081A5",
": c #385085",
"> c #9FAABF",
", c #67799F",
"< c #E1E2E5",
"1 c #09286A",
"2 c #8391B0",
"3 c #4B6090",
"4 c #7A89AA",
"5 c #1C3875",
"6 c #4B618F",
"7 c None",
/* pixels */
"++++<$$<++++<$$<++++",
"+++=2oo2=++=2oo2=+++",
"+++X2oo2X++X2oo2X+++",
"++4>&66&>44>&66&>4++",
"++o$*%%*$oo$*%%*$o++",
"++-26::62--26::62-++",
"+++X,##,X++X,##,X+++",
"+++ >XX> ++ >XX> +++",
"+++X3$$3X++X3$$3X+++",
"++@,;OO;,@@,;OO;,@++",
"++o$5445$oo$5445$o++",
"++o$1..1$oo$1..1$o++",
"+++X>XX>X++X>XX>X+++",
"+++4,##,4++4,##,4+++",
"+++4,##,4++4,##,4+++",
"+++X>XX>X++X>XX>X+++",
"++o$1..1$oo$1..1$o++",
"++o$5445$oo$5445$o++",
"++@,;OO;,@@,;OO;,@++",
"+++X3$$3X++X3$$3X+++",
"+++ >XX> ++ >XX> +++",
"+++X,##,X++X,##,X+++",
"++-26::62--26::62-++",
"++o$*%%*$oo$*%%*$o++",
"++4>&66&>44>&66&>4++",
"+++X2oo2X++X2oo2X+++",
"+++=2oo2=++=2oo2=+++",
"++++<$$<++++<$$<++++"
};
