/* XPM */
static char *[] = {
/* width height ncolors chars_per_pixel */
"20 28 44 1",
/* colors */
"  c #CED5D4",
". c #2B564E",
"X c #D89F9F",
"o c #7D9591",
"O c #7C9590",
"+ c #C55454",
"@ c #587A73",
"# c #CE7A7A",
"$ c #B00000",
"% c #214F46",
"& c #98ABA7",
"* c #B3C0BE",
"= c #B92626",
"- c #EAEAEA",
"; c #0F4137",
": c #2A564E",
"> c #A1B2AF",
", c #CC7070",
"< c #D8DCDB",
"1 c #D59696",
"2 c #18483F",
"3 c #8FA4A0",
"4 c #4F726B",
"5 c #C6CECC",
"6 c #C24B4B",
"7 c #E1E3E3",
"8 c #063A30",
"9 c #3D645C",
"0 c #B51313",
"q c #E0C4C4",
"w c #587973",
"e c #CFD5D4",
"r c #D38C8C",
"t c #98AAA7",
"y c #748F8A",
"u c #738F89",
"i c #345D55",
"p c #BE3838",
"a c #C5CECC",
"s c #C75E5E",
"d c #BC2F2F",
"f c #224F46",
"g c #BA2626",
"h c None",
/* pixels */
"&8f;: -q$00$q- :;f8&",
"483i2t-#$ss$#-t2i384",
"<@3i>---,ss,--->i3@<",
"5ff;w---g00g---w;ff5",
".8u:;o-+$66$+-o;:u8.",
"e992O---6==6---O299e",
"e93iO---6ss6---Oi39e",
".83i;o-+$ss$+-o;i38.",
"5iiiw---dddd---wiii5",
"<333>---rrrr--->333<",
"48@%2t-#$pp$#-t2%@84",
"&83i: -q$ss$q- :i38&",
"7uu:a---1661---a:uu7",
"y892%*-X$==$X-*%298y",
"y892%*-X$==$X-*%298y",
"7uu:a---1661---a:uu7",
"&83i: -q$ss$q- :i38&",
"48@%2t-#$pp$#-t2%@84",
"<333>---rrrr--->333<",
"5iiiw---dddd---wiii5",
".83i;o-+$ss$+-o;i38.",
"e93iO---6ss6---Oi39e",
"e992O---6==6---O299e",
".8u:;o-+$66$+-o;:u8.",
"5ff;w---g00g---w;ff5",
"<@3i>---,ss,--->i3@<",
"483i2t-#$ss$#-t2i384",
"&8f;: -q$00$q- :;f8&"
};
