/* XPM */
static char *[] = {
/* width height ncolors chars_per_pixel */
"20 28 48 1",
/* colors */
"  c #000000",
". c #9F9F9F",
"X c #E3CECE",
"o c #D89F9F",
"O c #C55454",
"+ c #CE7A7A",
"@ c #B20909",
"# c #B00000",
"$ c #E1C4C4",
"% c #4B4B4B",
"& c #B92626",
"* c #EAEAEA",
"= c #2F2F2F",
"- c #252525",
"; c #D79F9F",
": c #E8E1E1",
"> c #CC7070",
", c #CECECE",
"< c #131313",
"1 c #C4C4C4",
"2 c #090909",
"3 c #D59696",
"4 c #B92525",
"5 c #B2B2B2",
"6 c #C24B4B",
"7 c #B71C1C",
"8 c #969696",
"9 c #8C8C8C",
"0 c #B51313",
"q c #E0C4C4",
"w c #7A7A7A",
"e c #707070",
"r c #DEBBBB",
"t c #D38C8C",
"y c #5E5E5E",
"u c #545454",
"i c #DCB2B2",
"p c #BE3838",
"a c #383838",
"s c #262626",
"d c #D7D7D7",
"f c #C75E5E",
"g c #BC2F2F",
"h c #1C1C1C",
"j c #BBBBBB",
"k c #BA2626",
"l c #E5D7D7",
"z c None",
/* pixels */
"********************",
"********************",
"*****5yyw**ww*******",
"*****d% 2w*12=.*****",
"*******=-jj-2h j****",
"****999h    w5y,****",
"****999hh9ae***w****",
"******w2=*yj***=****",
"*****d%s**y8**,-=***",
"****dua,**8<99a h5**",
"****%a1****.    h5**",
"**w=j,******jjjj1***",
"**********X:********",
"*********$p>o*******",
"******3XX>t7g*******",
"******fk:X+@q*******",
"*****lr4300kg+******",
"*****iff6pp>o*******",
"*****ii+6#Ot03******",
"*****t7;3#7g#f******",
"******f3g7>4@+******",
"******f#tOpf7ttl****",
"***++*i7>#pf7tp6+***",
"***q@gg@k##3;+X4@+**",
"*o0k#6rrr>>4k#t*##t*",
"**3X0f&#ffffr#t*##t*",
"****o*it***+6#t+#p$*",
"***********q3#7@4X**"
};
