/* XPM */
static char *[] = {
/* width height ncolors chars_per_pixel */
"20 28 50 1",
/* colors */
"  c #C5CAD5",
". c #E3CECE",
"X c #D89F9F",
"o c #6779A0",
"O c #2F4880",
"+ c #D08383",
"@ c #E1C5C5",
"# c #C55454",
"$ c #5E719A",
"% c #26407A",
"& c #D7DADF",
"* c #CE7A7A",
"= c #C34B4B",
"- c #EAEAEA",
"; c #B2B9CA",
": c #133070",
"> c #8C99B5",
", c #D79F9F",
"< c #CC7070",
"1 c #546895",
"2 c #BBC2CF",
"3 c #8391AF",
"4 c #D59696",
"5 c #B92525",
"6 c #CA6767",
"7 c #26407B",
"8 c #C24B4B",
"9 c #9FA9C0",
"0 c #CED2DA",
"q c #B51313",
"w c #7081A5",
"e c #385085",
"r c #DEBBBB",
"t c #D38C8C",
"y c #9FAABF",
"u c #67799F",
"i c #D18383",
"p c #09286A",
"a c #8391B0",
"s c #BE3838",
"d c #4B6090",
"f c #B2BACA",
"g c #7A89AA",
"h c #C75E5E",
"j c #BC2F2F",
"k c #546995",
"l c #1C3875",
"z c #BA2626",
"x c #4B618F",
"c c None",
/* pixels */
"--------------------",
"--;>9---&>>&---9>;--",
"0$g>a$fgu>>ugf$a>g$0",
"2xoOdw>OyOOyO>wdOox2",
"O>ly7$$2poop2$$7yl>O",
"O>kuw$$2lggl2$$wuk>O",
"awexlgguw%%wugglxewa",
"2:32yl>Od22dO>ly23:2",
"--gO1--- OO ---1Og--",
"--------------------",
"--4h*---.hh.---*h4--",
"@j+r,jX#=rr=#Xj,r+j@",
",68z5++=4qq4=++5z86,",
"jtsi8hhrq<<qrhh8istj",
"jtsi8hhrq<<qrhh8istj",
",68z5++=4qq4=++5z86,",
"@j+r,jX#=rr=#Xj,r+j@",
"--4h*---.hh.---*h4--",
"--------------------",
"--gO1--- OO ---1Og--",
"2:32yl>Od22dO>ly23:2",
"awexlgguw%%wugglxewa",
"O>kuw$$2lggl2$$wuk>O",
"O>ly7$$2poop2$$7yl>O",
"2xoOdw>OyOOyO>wdOox2",
"0$g>a$fgu>>ugf$a>g$0",
"--;>9---&>>&---9>;--",
"--------------------"
};
