/* XPM */
static char *[] = {
/* width height ncolors chars_per_pixel */
"20 28 25 1",
/* colors */
"  c #000000",
". c #9F9F9F",
"X c #4B4B4B",
"o c #EAEAEA",
"O c #2F2F2F",
"+ c #252525",
"@ c #CECECE",
"# c #131313",
"$ c #C4C4C4",
"% c #090909",
"& c #B2B2B2",
"* c #969696",
"= c #8C8C8C",
"- c #7A7A7A",
"; c #707070",
": c #5E5E5E",
"> c #545454",
", c #383838",
"< c #E1E1E1",
"1 c #262626",
"2 c #D7D7D7",
"3 c #1C1C1C",
"4 c #C5C5C5",
"5 c #BBBBBB",
"6 c None",
/* pixels */
"oooooooooooooooooooo",
"oooooooooooooooooooo",
"oooooooo@::@oooooooo",
"oooooooo<; 1oooooooo",
"ooooooooo= 1oooooooo",
"ooooooooo= 5=&oooooo",
"ooooooooo= X 1&ooooo",
"ooooo.OOO3    =ooooo",
"ooooooo>O3 5552ooooo",
"oooooooo2> ;  >2oooo",
"oooo@:&-X      Xoooo",
"oooo5 3%5; *55X >ooo",
"oooo5  **    XX Oooo",
"oooo@,  :, X:,  -ooo",
"ooooo$, :, X:, ;oooo",
"oooooo@++; ** ;<oooo",
"ooooooo$   1+@oooooo",
"oooooo&3#, 5X,$ooooo",
"ooooo&1 .= 55 ,@oooo",
"oooo43 *o= 5<; 1oooo",
"oo@5OOO%5; 5o.#  X2o",
"oo*:ooo-   5oo*:::&o",
"oooooooo;  5oooooooo",
"oooooooo<; 5oooooooo",
"ooooooooo..ooooooooo",
"oooooooooooooooooooo",
"oooooooooooooooooooo",
"oooooooooooooooooooo"
};
