/* XPM */
static char *[] = {
/* width height ncolors chars_per_pixel */
"20 28 37 1",
/* colors */
"  c #CED5D4",
". c #2B564E",
"X c #A1B2AE",
"o c #BCC7C5",
"O c #7D9591",
"+ c #7C9590",
"@ c #587A73",
"# c #214F46",
"$ c #98ABA7",
"% c #B3C0BE",
"& c #738E89",
"* c #EAEAEA",
"= c #0F4137",
"- c #869D98",
"; c #2A564E",
": c #A1B2AF",
"> c #61807A",
", c #D8DCDB",
"< c #18483F",
"1 c #8FA4A0",
"2 c #4F726B",
"3 c #C6CECC",
"4 c #6A8782",
"5 c #E1E3E3",
"6 c #063A30",
"7 c #3D645C",
"8 c #587973",
"9 c #CFD5D4",
"0 c #98AAA7",
"q c #748F8A",
"w c #738F89",
"e c #345D55",
"r c #4F726C",
"t c #224F46",
"y c #3D645D",
"u c #B3C0BD",
"i c None",
/* pixels */
"********************",
"********************",
"********************",
"***********88*******",
"************.6w5****",
"********,%**o679****",
"********o;u*oy3*****",
"******O3o6t32-X*****",
"******>.66w;*16$****",
"***::3&-6;><:162****",
"***:<&3e6>0-<7@,****",
"****6>O=;-<o6r,*****",
"***834r.$<<6.6w5****",
"*****17-<&y6q66q****",
"****9&&<-7@##@66+***",
"****2-<62o4==4r6=O**",
"** 2$<Xe6rr6.666.6w5",
"*3&-6>%#6666q666->>9",
"9&&<#%>6#@66#@66e***",
"5  ;eX<6=t66=twoe***",
"****.6t32wt3o66$****",
"****9>u*->u*9766****",
"********:****166****",
"*************16$****",
"********************",
"********************",
"********************",
"********************"
};
