/* XPM */
static char *[] = {
/* width height ncolors chars_per_pixel */
"20 28 22 1",
/* colors */
"  c #000000",
". c #9F9F9F",
"X c #4B4B4B",
"o c #EAEAEA",
"O c #2F2F2F",
"+ c #252525",
"@ c #CECECE",
"# c #131313",
"$ c #C4C4C4",
"% c #090909",
"& c #B2B2B2",
"* c #969696",
"= c #8C8C8C",
"- c #7A7A7A",
"; c #5E5E5E",
": c #545454",
"> c #383838",
", c #262626",
"< c #D7D7D7",
"1 c #1C1C1C",
"2 c #BBBBBB",
"3 c None",
/* pixels */
"oooooooooooooooooooo",
"oooooooooooooooooooo",
"oooooooooooooooooooo",
"oooooooooooooooooooo",
"oooooooooooooooooooo",
"oooooooooooooooooooo",
"oooooooooooooooooooo",
"oooooooooo-O:ooooooo",
"oooooooooo-%  =ooooo",
"ooooooo.oooO  =ooooo",
"ooooo&;#-ooO >$ooooo",
"ooooo=  %-oO+@-O:ooo",
"oooooo-%%-oOO<X  X<o",
"oo&===$OOooO1:  #;&o",
"oo;   =OOooO  :=.ooo",
"oo@+ X<OOooO+2<ooooo",
"oooooooOO<<OOooooooo",
"oo&<oooO1-&O1&oooooo",
"oo;Xoo*#1&oO ,;;;;&o",
"oo; OO# Ooo$      =o",
"o.# %O.Oooooo.OOO-oo",
"oo*;-oo-oooooooooooo",
"oooooooooooooooooooo",
"oooooooooooooooooooo",
"oooooooooooooooooooo",
"oooooooooooooooooooo",
"oooooooooooooooooooo",
"oooooooooooooooooooo"
};
