/* XPM */
static char *[] = {
/* width height ncolors chars_per_pixel */
"20 28 25 1",
/* colors */
"  c #E3CECE",
". c #D89F9F",
"X c #C55454",
"o c #CE7A7A",
"O c #B20909",
"+ c #B00000",
"@ c #E1C4C4",
"# c #B92626",
"$ c #EAEAEA",
"% c #E8E1E1",
"& c #CC7070",
"* c #D59696",
"= c #C24B4B",
"- c #B71C1C",
"; c #B51313",
": c #DEBBBB",
"> c #D38C8C",
", c #DCB2B2",
"< c #D18383",
"1 c #BE3838",
"2 c #C75E5E",
"3 c #BC2F2F",
"4 c #BA2626",
"5 c #E5D7D7",
"6 c None",
/* pixels */
"$$$$$$$$$$$$$$$$$$$$",
"$$$$$$$$$$$$$$$$$$$$",
"$$$$$$$$$$$$$$$$$$$$",
"$$$$$$$$$..$$$$$$$$$",
"$$$$$$$$4++*$$$$$$$$",
"$$$$$$$$ 1+=$$$$$$$$",
"$$$$$$$$$>+:$$$$$$$$",
"$$$$$$$$$>+:$$$$$$$$",
"$5:%$$$$%&+*::=+: $$",
"$,#&$$$.&++=222;+1@$",
"$$,-o,2<>X+:$$$3++>$",
"$$$3O-&%$>+:$$$3++>$",
"$$$$++&%$>+:$5=+4;.$",
"$$$$=++&>X+&>X++ *$$",
"$$$$:++&>X+&&++&$$$$",
"$$$$%&+:$>+:%&&%$$$$",
"$$$$$$$$$>+:$$$$$$$$",
"$$$$$$$$$>+:$$$$$$$$",
"$$$$$$$$$>+:$$$$$$$$",
"$$$$$$$$$>+:$$$$$$$$",
"$$$$$$$$$>+:$$$$$$$$",
"$$$$$$$$$>+:$$$$$$$$",
"$$$$$$$$$>+:$$$$$$$$",
"$$$$$$$$$>+:$$$$$$$$",
"$$$$$$$$$>>$$$$$$$$$",
"$$$$$$$$$,,$$$$$$$$$",
"$$$$$$$$$$$$$$$$$$$$",
"$$$$$$$$$$$$$$$$$$$$"
};
