/* XPM */
static char *[] = {
/* width height ncolors chars_per_pixel */
"20 28 27 1",
/* colors */
"  c #000000",
". c #9F9F9F",
"X c #838383",
"o c #676767",
"O c #4B4B4B",
"+ c #EAEAEA",
"@ c #2F2F2F",
"# c #252525",
"$ c #CECECE",
"% c #131313",
"& c #C4C4C4",
"* c #090909",
"= c #B2B2B2",
"- c #969696",
"; c #8C8C8C",
": c #7A7A7A",
"> c #707070",
", c #5E5E5E",
"< c #545454",
"1 c #383838",
"2 c #E1E1E1",
"3 c #262626",
"4 c #D7D7D7",
"5 c #1C1C1C",
"6 c #C5C5C5",
"7 c #BBBBBB",
"8 c None",
/* pixels */
"++++++++++++++++++++",
"++++++++++++++++++++",
"+++++++::+++++++++++",
"+++++++&*@@6++++++++",
"++++++++65  <+++++++",
"+++++++++;  ++++++++",
"+++++++++; >++++++++",
"+++++++++; 7<+++++++",
"++++++++2>   O4+++++",
"++++++=;X1  %,=+++++",
"++++++=;.; >%-++++++",
"+++++++++;>2 %.+++++",
"+++++;>72>    >77$++",
"+++++=3 >  O 3,% 1&+",
"+++++=3  1;o ,+.  ;+",
"+..+65  #X@*#$++  ;+",
"++,-<+$#*5 -- >2 ,++",
"++-%.+-,5<  ,,,$ ,++",
"+++@%--,5< >++++ ,++",
"+++& %X7&;>2+++< ,++",
"++++65;+++:@3    ,++",
"+++++==+++++$,,%%-++",
"+++++++++++++++..+++",
"++++++++++++++++++++",
"++++++++++++++++++++",
"++++++++++++++++++++",
"++++++++++++++++++++",
"++++++++++++++++++++"
};
