/* XPM */
static char *[] = {
/* width height ncolors chars_per_pixel */
"28 28 24 1",
/* colors */
"  c #000000",
". c #ADADAD",
"X c #A3A3A3",
"o c #999999",
"O c #8F8F8F",
"+ c #858585",
"@ c #3D3D3D",
"# c #333333",
"$ c #E0E0E0",
"% c #292929",
"& c #D6D6D6",
"* c #1F1F1F",
"= c #CCCCCC",
"- c #C2C2C2",
"; c #7A7A7A",
": c #707070",
"> c #666666",
", c #5C5C5C",
"< c #525252",
"1 c #FFFFFF",
"2 c #EBEBEB",
"3 c #141414",
"4 c #0A0A0A",
"5 c None",
/* pixels */
"5555555555*######*5555555555",
"55555555>>-111111->>55555555",
"555555,o111111111111o,555555",
"55555<2111111111111112<55555",
"5555,111111111111111111,5555",
"555<1111111111111&o21111<555",
"55,2111111111111$@ <11112,55",
"55o1111111111.##%   #+111o55",
"5>1112===;*###O=&2<   o111>5",
"5>111-% >>-111X3*,@>>>-111>5",
"*-1111-o1111111# @&1111111-*",
"#1111111&#.111+4%$111111111#",
"#11111111o =12:4#1111111111#",
"#11111111-%;1o,**o&11111111#",
"#11111111-% >@  *,@>1111111#",
"#1111111&*  X<=%#2< ,111111#",
"#11111> 4++4X>1#,11# >11111#",
"*-1111> #11# >-*11-* >1111-*",
"5>1111-*3X1. %% >>% *-1111>5",
"5>11111& 3##        &11111>5",
"55o11111&* %,111  *&11111o55",
"55,211111->$1111>>-111112,55",
"555<11111111111111111111<555",
"5555,111111111111111111,5555",
"55555<2111111111111112<55555",
"555555,o111111111111o,555555",
"55555555>>-111111->>55555555",
"5555555555*######*5555555555"
};
