/* XPM */
static char *[] = {
/* width height ncolors chars_per_pixel */
"28 28 25 1",
/* colors */
"  c #000000",
". c #ADADAD",
"X c #A3A3A3",
"o c #999999",
"O c #8F8F8F",
"+ c #858585",
"@ c #3D3D3D",
"# c #333333",
"$ c #E0E0E0",
"% c #292929",
"& c #D6D6D6",
"* c #1F1F1F",
"= c #CCCCCC",
"- c #C2C2C2",
"; c #7A7A7A",
": c #707070",
"> c #666666",
", c #5C5C5C",
"< c #525252",
"1 c #FFFFFF",
"2 c #F5F5F5",
"3 c #EBEBEB",
"4 c #141414",
"5 c #0A0A0A",
"6 c None",
/* pixels */
"6666666666*######*6666666666",
"66666666>>-111111->>66666666",
"666666,o111++1111111o,666666",
"66666<31111&5##&111113<66666",
"6666,1111111&*  ,111111,6666",
"666<111111111o  11111111<666",
"66,3111111111o ;111111113,66",
"66o1111111111o =,11111111o66",
"6>11111111112;   <31111111>6",
"6>11111111-oO@  4>-1111111>6",
"*-11111111-o.o ;4X11111111-*",
"#111111111111o;2 4.11111111#",
"#11111111o;=2;    ;==$11111#",
"#11111111-% ;  < %>4 @&1111#",
"#11111111-%  @o: >1.  o1111#",
"#1111..1&*  %O#5%$11  o1111#",
"#11111>X,1$%5* XX ;2 >11111#",
"*-1111X4.1X>*,  >>>$ >1111-*",
"6>11111#4XX>*, ;1111 >1111>6",
"6>11111& 4O=&o;2111, >1111>6",
"66o11111&*o111+#%    >111o66",
"66,311111--11111$>>44X113,66",
"666<111111111111111..111<666",
"6666,111111111111111111,6666",
"66666<3111111111111113<66666",
"666666,o111111111111o,666666",
"66666666>>-111111->>66666666",
"6666666666*######*6666666666"
};
