/* XPM */
static char *[] = {
/* width height ncolors chars_per_pixel */
"28 28 21 1",
/* colors */
"  c #000000",
". c #ADADAD",
"X c #A3A3A3",
"o c #999999",
"O c #858585",
"+ c #3D3D3D",
"@ c #333333",
"# c #E0E0E0",
"$ c #292929",
"% c #D6D6D6",
"& c #1F1F1F",
"* c #CCCCCC",
"= c #C2C2C2",
"- c #666666",
"; c #5C5C5C",
": c #525252",
"> c #FFFFFF",
", c #EBEBEB",
"< c #141414",
"1 c #0A0A0A",
"2 c None",
/* pixels */
"2222222222&@@@@@@&2222222222",
"22222222--=>>>>>>=--22222222",
"222222;o>>>>>>>>>>>>o;222222",
"22222:,>>>>>>>>>>>>>>,:22222",
"2222;>>>>>>>>>>>>>>>>>>;2222",
"222:>>>>>>>>>>>>>>>>>>>>:222",
"22;,>>>>>>>>>>>>>>>>>>>>,;22",
"22o>>>>>>>>>>>O@;>>>>>>>>o22",
"2->>>>>>>>>>>>O1  o>>>>>>>-2",
"2->>>>>>>>>.>>>@  o>>>>>>>-2",
"&=>>>>>>>=-<O>>@ +%>>>>>>>=&",
"@>>>>>>>>o  1O>@$#O@;>>>>>>@",
"@>>>>>>>>>O11O>@@,:  :,>>>>@",
"@>>>>>=ooo%@@>>@&;  <-=>>>>@",
"@>>>>>-   o@@>>@  ;o.>>>>>>@",
"@>>>>>#$ :,@@>>@$*,>>>>>>>>@",
"@>>>>>>>>>>@@,,@@>>>>>>>>>>@",
"&=>>>>=,>>>@&O=@&=>>>>>>>>=&",
"2->>>>-:>>X<&=>@ $----=>>>-2",
"2->>>>- @@< @>>%      o>>>-2",
"22o>>.< 1@.@>>>>>.@@@O>>>o22",
"22;,>>X-O>>O>>>>>>>>>>>>,;22",
"222:>>>>>>>>>>>>>>>>>>>>:222",
"2222;>>>>>>>>>>>>>>>>>>;2222",
"22222:,>>>>>>>>>>>>>>,:22222",
"222222;o>>>>>>>>>>>>o;222222",
"22222222--=>>>>>>=--22222222",
"2222222222&@@@@@@&2222222222"
};
