/* XPM */
static char *[] = {
/* width height ncolors chars_per_pixel */
"28 28 23 1",
/* colors */
"  c #000000",
". c #ADADAD",
"X c #A3A3A3",
"o c #999999",
"O c #858585",
"+ c #3D3D3D",
"@ c #333333",
"# c #E0E0E0",
"$ c #292929",
"% c #D6D6D6",
"& c #1F1F1F",
"* c #CCCCCC",
"= c #C2C2C2",
"- c #7A7A7A",
"; c #666666",
": c #5C5C5C",
"> c #525252",
", c #FFFFFF",
"< c #F5F5F5",
"1 c #EBEBEB",
"2 c #141414",
"3 c #0A0A0A",
"4 c None",
/* pixels */
"4444444444&@@@@@@&4444444444",
"44444444;;=,,,,,,=;;44444444",
"444444:o,,,,#;;#,,,,o:444444",
"44444>1,,,,,<- $,,,,,1>44444",
"4444:,,,,,,,,o $,,,,,,,:4444",
"444>,,,,,,,,,o *o=,,,,,,>444",
"44:1,,,,,,,,,o > $=,,,,,1:44",
"44o,,,,,,.@@@&    o,,,,,,o44",
"4;,,,,,,,,,:@& ***1,,,,,,,;4",
"4;,,,,,,,,,,1: -  :1,,,,,,;4",
"&=,,,,,,#;=O>      >,,,,,,=&",
"@,,,,,,,* &3*- X**> :,,,,,,@",
"@,,,,,,,*  XX    >> @,,,,,,@",
"@,,,,,,,#+  ;+ >;+  O,,,,,,@",
"@,,,,,,,,%+ ;+ >;+ -,,,,,,,@",
"@,,,,,,,,,#$$- XX -<,,,,,,,@",
"@,,,,,,,,,,%   $$#,,,,,,,,,@",
"&=,,,,,,,,=&2+ *>+%,,,,,,,=&",
"4;,,,,,,,=$ .o ** +#,,,,,,;4",
"4;,,,,,,%& X,o *<- $,,,,,,;4",
"44o,,,#*@@@3*- *,.2  >1,,o44",
"44:1,,X;,,,O   *,,X;;;=,1:44",
"444>,,,,,,,,-  *,,,,,,,,>444",
"4444:,,,,,,,<- *,,,,,,,:4444",
"44444>1,,,,,,..,,,,,,1>44444",
"444444:o,,,,,,,,,,,,o:444444",
"44444444;;=,,,,,,=;;44444444",
"4444444444&@@@@@@&4444444444"
};
