/* XPM */
static char *[] = {
/* width height ncolors chars_per_pixel */
"20 28 15 1",
/* colors */
"  c #C4CAD4",
". c #BBC2CE",
"X c #5E7197",
"o c #D7DADF",
"O c #7A89A8",
"+ c #385081",
"@ c #EAEAEA",
"# c #9FAABE",
"$ c #546892",
"% c #96A2B8",
"& c #8C99B3",
"* c #2F487C",
"= c #546992",
"- c #4B618C",
"; c None",
/* pixels */
"@@@@@@@@@@@@@@@@@@@@",
"@ &&&&&&&&&&&&&&&&&o",
"@&=&&&&&&&&&&&&&&&+.",
"@&&$*************OX.",
"@&&*#O@@@@@@@@@$%XX.",
"@&&*O@@@@@@@@@@@-XX.",
"@&&*@@@@@@@@@@@@.XX.",
"@&&*@@@@@@@@@@@@.XX.",
"@&&*@@@@@@@@@@@@.XX.",
"@&&*@@@@@@@@@@@@.XX.",
"@&&*@@@@@@@@@@@@.XX.",
"@&&*@@@@@@@@@@@@.XX.",
"@&&*@@@@@@@@@@@@.XX.",
"@&&*@@@@@@@@@@@@.XX.",
"@&&*@@@@@@@@@@@@.XX.",
"@&&*@@@@@@@@@@@@.XX.",
"@&&*@@@@@@@@@@@@.XX.",
"@&&*@@@@@@@@@@@@.XX.",
"@&&*@@@@@@@@@@@@.XX.",
"@&&*@@@@@@@@@@@@.XX.",
"@&&*@@@@@@@@@@@@.XX.",
"@&&*@@@@@@@@@@@@.XX.",
"@&&*O@@@@@@@@@@@-XX.",
"@&&*#O@@@@@@@@@$%XX.",
"@&&$*************OX.",
"@&=&&&&&&&&&&&&&&&+.",
"@ &&&&&&&&&&&&&&&&&o",
"@@@@@@@@@@@@@@@@@@@@"
};
