/* XPM */
static char *[] = {
/* width height ncolors chars_per_pixel */
"20 28 26 1",
/* colors */
"  c #000000",
". c #9F9F9F",
"X c #838383",
"o c #676767",
"O c #4B4B4B",
"+ c #EAEAEA",
"@ c #2F2F2F",
"# c #252525",
"$ c #CECECE",
"% c #131313",
"& c #C4C4C4",
"* c #090909",
"= c #B2B2B2",
"- c #969696",
"; c #8C8C8C",
": c #7A7A7A",
"> c #707070",
", c #5E5E5E",
"< c #545454",
"1 c #383838",
"2 c #262626",
"3 c #D7D7D7",
"4 c #1C1C1C",
"5 c #C5C5C5",
"6 c #BBBBBB",
"7 c None",
/* pixels */
"++++++++++++++++++++",
"++++++++++++++++++++",
"++++++++++++++++++++",
"++++++++++++++++++++",
"++++++++++++++++++++",
"+++++++++++++&;3++++",
"++++++++++++$1 O++++",
"+++++++++.@@2   @:++",
"+3666>4@@@X6&3O   ;+",
"+=2 ,,=+++-%4<1,,,=+",
"++=;+++++++@ 1&+++++",
"++++5@.+++:*#$++++++",
"+++++; 6+3o*@+++++++",
"+++++=2>+;<44;&+++++",
"+++++=2 ,1  4<1,++++",
"++++54  -O6#@3O <+++",
"++, *::*-,+@<++@ ,++",
"++, @++@ ,=4++=4 ,++",
"++=4%-+. 22 ,,2 4=++",
"+++& %@@        &+++",
"++++54 2<+++  45++++",
"+++++=,$++++,,=+++++",
"++++++++++++++++++++",
"++++++++++++++++++++",
"++++++++++++++++++++",
"++++++++++++++++++++",
"++++++++++++++++++++",
"++++++++++++++++++++"
};
