/* XPM */
static char *noname[] = {
/* width height ncolors chars_per_pixel */
"25 35 2 1",
/* colors */
"  c #000",
". c #FFF",
/* pixels */
".........................",
".........................",
".........................",
".........................",
".........................",
".........................",
".........................",
".........................",
".........................",
".........................",
".........................",
".......     .............",
"....... .....     .......",
"....... ...... ... ......",
"....... ...... ... ......",
".......    ...    .......",
"........... .. ... ......",
"........... .. ... ......",
"...... .... .. ... ......",
".......    ..     .......",
".........................",
".........................",
".........................",
".........................",
".........................",
".........................",
".........................",
".........................",
".........................",
".........................",
".........................",
".........................",
".........................",
".........................",
"........................."
};
