/* XPM */
static char * tongS_xpm[] = {
"35 35 4 1",
" 	c None",
".	c #000000",
"+	c #FFFFFF",
"@	c #F0F0F0",
"             .........             ",
"          ...+++++++++...          ",
"        ..+++++++++++++++..        ",
"       .+++++++++++++++++++.       ",
"      .+++++++++++++++++++++.      ",
"     .++++@@@@@@@@@@@@@@@++++.     ",
"    .+++++@@@@@@@@@@@@@@@+++++.    ",
"   .++++++@@@@@@@@@@@@@@@++++++.   ",
"  .+++++++@@@@@@@@@@@@@@@+++++++.  ",
"  .+++++++@@@@@@@@@@@@@@@+++++++.  ",
" .++++++++@@@@@@@@@@@@@@@++++++++. ",
" .++++++++@@@@@@@@@@@@@@@++++++++. ",
" .++++++++@@@....@...@...++++++++. ",
".+++++++++@@.@@@.@@.@@@.@+++++++++.",
".+++++++++@@.@@@@@@.@.@.@+++++++++.",
".+++++++++@@...@@@@.@.@.@+++++++++.",
".+++++++++@@@@...@@.@.@.@+++++++++.",
".+++++++++@@@@@@.@@..@..@+++++++++.",
".+++++++++@@.@@@.@@@.@.@@+++++++++.",
".+++++++++@@....@@@@.@.@@+++++++++.",
".+++++++++@@@@@@@@@@@@@@@+++++++++.",
".+++++++++@@@@@@@@@@@@@@@+++++++++.",
" .++++++++@@@@@@@@@@@@@@@++++++++. ",
" .++++++++@@@@@@@@@@@@@@@++++++++. ",
" .++++++++@@@@@@@@@@@@@@@++++++++. ",
"  .+++++++@@@@@@@@@@@@@@@+++++++.  ",
"  .+++++++@@@@@@@@@@@@@@@+++++++.  ",
"   .++++++@@@@@@@@@@@@@@@++++++.   ",
"    .+++++@@@@@@@@@@@@@@@+++++.    ",
"     .++++@@@@@@@@@@@@@@@++++.     ",
"      .+++++++++++++++++++++.      ",
"       .+++++++++++++++++++.       ",
"        ..+++++++++++++++..        ",
"          ...+++++++++...          ",
"             .........             "};
